<?xml version="1.0" encoding="UTF-8"?>
<svg width="544px" height="138px" viewBox="0 0 544 138" version="1.1" xmlns="http://www.w3.org/2000/svg" xmlns:xlink="http://www.w3.org/1999/xlink">
    <title>364EB915-E691-4B40-B18E-034291023B64</title>
    <defs>
        <polygon id="path-1" points="0 0 85.8017486 0 85.8017486 127.161167 0 127.161167"></polygon>
    </defs>
    <g id="Page-1" stroke="none" stroke-width="1" fill="none" fill-rule="evenodd">
        <g id="MacBook-Pro-13&quot;-Copy" transform="translate(-392.000000, -320.000000)">
            <g id="Group-31" transform="translate(392.000000, 320.000000)">
                <path d="M173.679695,72.1158829 C173.767856,71.8678605 174.307314,71.0964687 174.170176,70.9430311 C174.032338,70.7881922 173.33475,72.460592 173.324254,72.6140296 C173.320756,72.6672774 172.95482,73.2845309 173.115048,73.2186718 C173.275276,73.1528128 173.591535,72.3646059 173.679695,72.1158829" id="Fill-1" fill="#FFFCFF"></path>
                <path d="M193.765605,69.4194447 C193.765605,69.5343478 193.789395,69.6674672 193.853066,69.5210358 C193.918137,69.3746045 193.918137,69.3970246 193.853066,69.3206561 C193.788695,69.2449883 193.765605,69.3045417 193.765605,69.4194447" id="Fill-3" fill="#FFFCFF"></path>
                <path d="M195.796377,64.1425224 C195.662736,64.3099726 195.314292,64.8424501 195.18485,65.0701543 C195.055408,65.2971579 194.835706,65.6818029 194.785329,65.8310367 C194.734952,65.9809711 194.644692,66.0748553 194.787428,66.0734696 C194.930164,66.0720528 195.172256,65.6425677 195.27511,65.4891301 C195.377964,65.3363931 195.650842,65.0070978 195.67743,64.8123231 C195.703318,64.6175484 195.920221,64.3744304 195.98879,64.2679349 C196.058059,64.1614394 196.348429,63.8251378 196.21339,63.7669857 C196.07835,63.7088335 195.930017,63.9743716 195.796377,64.1425224" id="Fill-5" fill="#FFFCFF"></path>
                <path d="M190.997924,73.4816177 C191.255409,73.3723196 191.792768,71.8204279 191.949498,71.4336811 C192.105528,71.0469343 192.854893,69.7087342 192.768832,69.5195645 C192.68277,69.3310955 192.513446,69.9854824 192.37001,70.2545236 C192.227274,70.5235649 191.661927,71.7048242 191.458318,72.0432277 C191.254709,72.3823318 190.822303,73.0969727 190.867083,73.3001549 C190.911163,73.5033371 190.73974,73.5916163 190.997924,73.4816177" id="Fill-7" fill="#FFFCFF"></path>
                <path d="M196.449254,56.6100674 C196.531817,56.6226787 196.645866,56.5294951 196.718634,56.4762474 C196.790701,56.4237003 196.936936,56.3080966 196.983815,56.2534476 C197.030694,56.1987986 197.119554,56.1147232 197.06218,56.0761886 C197.005505,56.0383547 196.722832,56.2926828 196.680851,56.331918 C196.638869,56.3697519 196.367391,56.5981567 196.449254,56.6100674" id="Fill-9" fill="#FFFCFF"></path>
                <path d="M182.826492,74.0871006 C182.601192,74.2769709 182.094619,74.9131414 181.767865,75.0981073 C181.998762,74.8213591 182.438165,74.2559521 182.647372,74.0359548 C182.856578,73.8159575 182.925147,73.7164683 183.07628,73.6064696 C183.226712,73.4971716 183.471603,73.076094 183.561163,73.1524625 C183.650723,73.228831 183.051791,73.8972304 182.826492,74.0871006 M117.548508,54.2852425 C115.837774,56.1699327 104.581212,60.0521142 100.595096,61.0652227 C99.6232312,61.3118439 96.2815268,62.7271131 95.3579402,63.0858348 C94.4336539,63.4445565 93.962065,63.6120067 93.4107117,63.8053801 C92.8593585,63.9980529 93.0118902,63.9609196 92.5773847,64.1031471 C92.9300269,61.967632 93.4289036,59.9210967 94.7443148,58.2949384 C96.0590264,56.6687801 97.5969381,55.8210198 99.4616035,55.2969498 C101.326969,54.7728798 103.282593,54.4554952 105.196937,54.3167708 C107.11128,54.1773458 109.816969,53.9706604 111.533301,54.0526339 C113.250332,54.1346074 115.974913,53.5516847 116.881707,53.8088153 C117.36519,53.9454378 119.259942,52.4026542 117.548508,54.2852425 M190.343927,73.0887053 C190.996735,72.7026591 192.545142,69.5316153 192.850205,68.4519471 C192.866998,68.3930943 192.954458,68.0308695 192.90548,67.7443125 C192.856502,67.4563543 193.225237,66.4096155 193.39736,66.103441 C193.906033,65.1982292 195.004541,62.8994677 195.021333,62.19954 C195.02833,61.8590346 195.017135,61.803685 195.011538,61.8008825 C195.015036,61.7924749 195.022033,61.7686536 195.035327,61.7048964 C195.097599,61.4106325 195.082906,61.6537505 194.93877,61.5738789 C194.793935,61.4933066 195.049321,60.8991738 195.136782,60.744335 C195.224243,60.5880949 195.276019,60.3127479 195.323598,60.116572 C195.370477,59.9189948 195.301908,60.0955532 195.238936,59.9848539 C195.121389,59.7795698 195.361381,59.3066457 195.492223,59.1104697 C195.623064,58.9135932 195.760203,58.7209204 195.85606,58.557674 C195.950518,58.3944276 195.971508,58.3271673 196.044975,58.1786341 C195.930227,58.2949384 195.790989,58.4378666 195.682537,58.5457633 C195.573386,58.6529594 195.369078,58.9086888 195.235438,58.9058863 C195.103197,58.9030838 195.172466,58.7804738 195.18436,58.6704752 C195.196955,58.5597759 195.270422,58.3243648 195.317301,58.1779334 C195.36418,58.0308015 195.428551,57.8703576 195.49852,57.7162194 C195.568489,57.5634824 195.665745,57.2923393 195.636358,57.1297935 C195.606272,56.9665471 195.675541,56.9455282 195.774196,56.8432365 C195.872153,56.7409448 195.943521,56.7003083 195.955415,56.5111387 C195.96661,56.321969 196.12334,56.0164951 196.225494,55.8371342 C196.327649,55.6577734 196.48018,55.3929359 196.411611,55.1925562 C196.342342,54.9914759 196.475982,54.8478471 196.600527,54.6747919 C196.655802,54.5977227 196.732767,54.4814184 196.807634,54.3623116 C196.845417,54.3160702 196.969961,54.1759445 196.939175,54.1479194 C196.979757,54.0778565 197.015441,54.0140994 197.03993,53.9629535 C197.12879,53.7800895 197.155378,53.7324468 197.230944,53.5790092 C197.135087,53.5937224 197.052524,53.667989 196.953868,53.6630846 C196.907689,53.6602821 196.823727,53.7247399 196.773349,53.6518745 C196.722972,53.5783085 196.829324,53.2055743 196.987453,52.9813732 C197.145583,52.7578728 197.605277,52.218389 198.052377,52.1973701 C198.113949,52.193867 197.892148,51.9500483 197.869759,51.9136157 C197.847369,51.877183 197.672447,51.8078208 197.705332,51.7342548 C197.7781,51.5675053 197.914538,51.4701179 198.061473,51.2655345 C198.207008,51.0602504 198.420412,50.8332468 198.410942,50.4815314 C198.400121,50.1305166 197.993603,49.794215 197.735419,49.5735171 C197.477934,49.3528192 196.635511,48.9905943 196.475982,48.9926962 C195.774196,48.9983012 194.003989,48.4854413 193.587675,49.2000822 C193.171361,49.9133218 192.053962,50.7729928 191.282207,51.2935596 C190.645492,51.7230448 189.560278,52.668893 189.134868,53.2483126 C188.709458,53.8277322 188.598908,53.9146101 188.189591,54.4155594 C187.415737,55.360707 186.681066,56.242798 185.992574,57.3785165 C185.77917,57.7309326 185.234814,58.4511785 184.97523,58.8631479 C184.716346,59.2744168 184.300032,59.769761 184.161494,60.1887367 C184.022256,60.6077125 183.773867,60.9243965 183.618537,61.249488 C183.463207,61.5738789 183.104967,61.8380158 183.205722,62.2604947 C183.307176,62.6829735 182.496239,63.9420026 182.169486,64.3763922 C181.984069,64.6223127 181.57895,65.3446605 181.33266,65.6115999 C181.08637,65.8778387 181.182927,65.7152929 180.779208,65.8329984 C180.376188,65.9500034 180.069725,66.1805101 179.593938,66.6870644 C179.118851,67.1943193 179.092263,67.1473772 178.13859,67.9797236 C177.184917,68.8127707 175.325849,70.8824267 174.084604,72.2087161 C172.84266,73.5350055 170.285305,76.3571364 169.269359,77.5545102 C167.699262,79.4027677 166.705707,80.4410989 165.279745,81.7856046 C164.650027,82.3790368 164.233013,82.7566754 163.805505,83.1805556 C162.548867,84.4269734 160.784957,85.9718588 159.672455,86.9107007 C158.559253,87.8502433 157.385178,88.6314439 156.602229,89.1169793 C155.81858,89.6025147 155.559695,89.8000919 155.097902,89.8876705 C154.636808,89.975249 154.882399,89.7594555 154.875402,89.5268469 C154.868405,89.2942383 155.032132,89.0174901 155.140583,88.6524627 C155.248335,88.2867348 155.401566,88.026101 155.597479,87.4887191 C157.120697,83.2975605 159.446456,78.7651959 161.437065,74.9208483 C161.750525,74.3155055 162.110863,73.7725185 162.152845,73.7024557 C163.200276,71.9557893 163.650874,70.5951691 164.451316,68.819777 C164.596151,68.4995898 164.878125,67.9439916 165.076136,67.4514499 C165.438574,66.5504418 165.861185,65.5415371 166.165549,64.506709 C166.29639,64.0590075 166.688215,63.1846234 166.872932,62.759342 C167.058349,62.33336 167.370409,61.749036 167.410991,61.4484664 C167.451573,61.1485975 167.110126,61.4204413 167.064646,61.3608879 C167.017767,61.3013345 166.695211,61.4891029 166.711304,61.2915257 C166.727397,61.0946491 166.951997,60.6700684 167.067445,60.4914082 C167.181494,60.3127479 167.530638,59.8075949 167.438279,59.6821824 C167.34592,59.5574706 167.298342,59.7354302 167.251462,59.7522453 C167.201085,59.7704616 167.198986,59.8909697 167.155605,59.9274024 C167.185692,59.605814 167.19059,59.3388746 167.251462,58.9990698 C167.312335,58.6599657 167.462068,58.1576152 167.518743,57.8241161 C167.574718,57.4913177 167.74964,57.1830412 167.874184,56.9546364 C167.998728,56.7255309 168.165253,56.5819021 168.322683,56.5279538 C168.479413,56.4740054 168.506701,56.5496732 168.512998,56.371013 C168.518595,56.1923528 168.270207,56.0164951 168.065198,56.067641 C168.045607,56.0725454 167.986134,56.1327994 167.980536,56.1496145 C168.030214,55.9954762 168.115576,55.7698739 168.199538,55.5533798 C168.715207,55.4552918 169.227378,55.33058 169.73815,55.1400091 C169.454776,55.0874619 168.937708,55.0433224 168.429035,54.9606482 C168.499004,54.776383 168.487809,54.8261276 168.424837,54.6846007 C168.356968,54.5325643 168.335277,54.4071518 168.338076,54.2158803 C168.339476,54.1318049 168.315686,54.0498314 168.273705,53.9804692 C168.344373,53.9762654 168.410144,53.9692591 168.46332,53.9559472 C168.924414,53.8382417 170.095689,53.8305347 170.621854,53.392642 C171.147319,52.9540487 170.738702,52.3620178 170.287404,52.0032961 C161.476947,50.3547177 152.628008,49.6512868 143.697205,49.0683641 C141.784261,49.1384269 139.9105,49.149637 137.98776,49.1328219 C136.064321,49.1146055 134.086306,49.0431415 132.15657,49.081676 C130.264617,49.1188093 128.375462,49.2897626 126.521992,49.6106504 C125.928658,49.221101 125.259757,48.8777932 124.521587,48.5653129 C122.444217,47.6853238 119.457954,46.925142 117.00765,46.62177 C114.557347,46.3183979 112.267272,46.08649 109.710616,46.1173176 C107.15466,46.1481452 104.088633,46.378652 101.516584,46.5629172 C98.9445349,46.7471825 96.5998843,46.9426578 94.0810117,47.0680702 C92.1106936,47.754686 90.2635203,48.058058 88.1455683,48.3341056 C86.0283159,48.6108538 83.5262358,48.7944184 81.3872931,48.9990019 C79.2490501,49.204286 77.4599509,49.7353622 75.6190748,50.7792984 C75.0404338,51.1078931 74.5450555,51.4841305 74.1056522,51.8982018 C74.1770202,51.2115861 74.1658253,50.5221678 74.0517763,49.8145332 C73.822279,48.3852515 73.0561219,47.5080648 72.1794143,46.4424091 C70.5708343,46.4718355 69.4156513,46.5832354 68.0183767,47.5508031 C66.6204024,48.5197721 65.1839453,50.1641468 64.1260188,51.4547041 C63.0680923,52.7466627 62.304734,53.7856945 61.1628451,54.9123049 C57.252995,60.1663166 53.171022,65.4427485 49.7768411,71.0554819 C46.3819606,76.668916 43.6720735,83.0173092 41.5800098,89.0055794 C40.7739706,91.3134491 40.9551895,92.6502479 41.9284539,94.4116275 C42.9010186,96.1723065 44.0415081,95.4835888 45.5059527,95.1620004 C45.5514323,94.9616207 45.6493885,94.4592702 45.7039641,94.3520741 C45.9782413,93.8195966 45.9796407,92.7714566 46.7395006,93.3915127 C47.5000602,94.0108681 47.8792904,93.2240625 48.385164,92.5948983 C49.7775408,90.8601426 51.2720719,89.2963402 52.6980337,87.5034323 C54.1225961,85.7091232 55.8564201,83.404056 57.1305498,81.5866262 C58.4046795,79.7698969 59.4710023,78.2684504 60.651374,76.5512104 C61.831046,74.8339704 63.4431245,72.374765 64.4296829,70.8508985 C65.4155417,69.3270319 66.8694909,67.2195419 67.4040517,66.2884068 C68.4654766,64.4387481 68.7481501,63.758438 69.5961705,62.3200481 C70.4455903,60.8809575 71.2292396,59.5210379 71.9226293,58.1162782 C72.2332902,57.4871139 72.5068678,56.8873761 72.7657519,56.286237 C73.033732,56.4880179 73.3401948,56.6470606 73.7124282,56.766868 C74.5520524,57.0373105 75.5498058,57.1073734 76.3950275,57.0758451 C77.2402492,57.0436162 78.2638911,57.0001772 78.9670763,57.132596 C79.6688622,57.2650148 80.1971258,57.187245 80.5371736,57.820613 C80.8779211,58.453981 80.3755459,59.2029527 80.0264022,59.9778476 C79.8955608,60.2679077 79.4386653,61.1072604 79.1461962,61.6530499 C77.7370269,64.2853105 76.0892644,67.2818978 74.7276738,69.939381 C73.3660832,72.595463 72.3067573,75.0833941 71.2040509,77.813042 C70.1013444,80.54269 68.8880874,84.0437297 68.1960972,86.6794934 C67.8280619,88.0800494 67.7531954,88.812206 68.3220408,89.7181184 C68.8908862,90.6233302 69.9754008,90.420148 70.792635,90.5168347 C71.6098692,90.6128208 72.3837229,90.4530775 73.1624743,90.731227 C73.3366964,90.0831458 73.7327191,89.0574259 74.0811632,88.6090238 C74.4289075,88.1606217 74.539458,88.1452078 74.9571711,88.2138694 C75.3734847,88.2818304 75.533713,88.3448869 75.9885095,88.0849538 C76.4426062,87.8257213 76.919093,87.1229911 77.1541877,86.5996218 C78.3898347,87.1433093 79.211267,87.1531181 80.330766,86.2030661 C81.4495652,85.2530141 82.6047482,83.7347526 83.452069,82.5177612 C84.2979904,81.3014704 85.0613487,80.28626 86.2522157,79.4973525 C90.262121,82.3986544 93.1945085,84.6245505 97.4164189,87.7451491 C101.63763,90.8664482 107.212734,94.736719 111.785188,97.9021578 C112.202201,98.1915173 112.616416,98.5334239 112.996346,98.8143758 C112.955064,98.7541218 112.736062,98.4612592 112.706675,98.4241259 C112.31555,97.9308835 111.148473,96.7531273 111.15407,96.2689932 C111.160367,95.784859 112.216195,96.5772696 112.444293,96.6270142 C112.672391,96.6774595 113.414758,97.2799998 113.796787,97.1819119 C114.178117,97.0838239 112.917281,95.4997033 112.801133,95.3876027 C113.698831,95.7042867 114.653204,96.1589945 115.604079,96.2935152 C115.413064,96.1554914 115.19826,96.0237733 115.004447,95.888552 C114.811333,95.754732 114.48458,95.5991925 114.317354,95.4877926 C113.614169,95.0204735 114.434202,95.1388797 114.798739,95.1788155 C114.532858,94.8327051 113.630262,93.9569197 113.718423,93.4896006 C113.806583,93.0215809 114.837921,93.8980669 115.024738,93.8560292 C115.149282,93.8273035 115.864362,94.5531544 115.965117,94.1720126 C116.065872,93.7922721 115.412364,93.2689027 114.798739,92.3727991 C113.740113,90.8286143 111.722216,88.1017689 110.096843,86.4363754 C108.470771,84.7716825 106.962946,83.1581355 105.105977,81.5600023 C103.249008,79.9618691 100.902958,78.0652682 98.9529312,76.4972621 C97.0036036,74.9299565 95.1935138,73.4782546 93.2749725,71.9340698 C97.6053343,70.6035767 101.699902,69.0222585 105.969391,67.3743807 C110.23958,65.7265029 115.364786,63.8551247 119.597191,62.6682603 C121.824295,62.0440005 123.099824,61.4806953 124.713301,60.4129378 C125.65578,59.7900792 126.457621,59.1483037 127.15171,58.4259559 C127.42039,58.472898 127.690469,58.5205407 127.952852,58.5583746 C128.696619,58.6648701 129.529246,58.7426399 130.276512,58.8028939 C131.023077,58.8624473 131.834014,58.9023831 132.541398,58.9381152 C133.248781,58.9731466 133.923979,59.0172862 134.568391,59.0733364 C135.212802,59.1293867 135.703982,59.1672206 136.31201,59.2912318 C128.677727,72.4735536 113.766701,99.7216895 110.61741,114.438387 C110.317245,115.843848 110.426396,115.860663 110.369022,116.669889 C110.312347,117.479114 110.443188,117.228289 110.746853,117.502235 C111.051216,117.77548 111.211445,117.434274 111.487821,117.437077 C111.764897,117.438478 112.02658,117.196761 112.261675,117.122494 C112.49607,117.046827 112.636707,116.906701 112.822124,117.1288 C113.007541,117.350899 112.913083,117.736945 112.89769,118.003184 C113.045324,117.61924 113.288115,117.029311 113.444145,116.698614 C113.600875,116.368618 113.698831,116.228493 113.882849,116.0134 C114.067566,115.797606 114.085758,115.843147 114.300562,115.616144 C114.515366,115.389841 114.646207,115.267931 114.938676,114.905006 C115.231145,114.54208 115.618772,113.994189 115.974213,113.483431 C118.078171,110.46022 129.137421,93.8090871 131.24068,90.7459401 C130.741104,91.7177116 130.16806,92.6530504 129.928767,93.7243111 C130.022525,93.6605539 130.311496,93.349475 130.368171,93.306036 C130.733407,93.0236828 131.175609,91.8914674 131.698275,92.1780244 C132.221641,92.4645814 131.678684,93.707496 131.452685,94.2679987 C131.225987,94.8285014 130.209342,96.3909025 130.39266,96.9976466 C130.575978,97.6050914 130.601166,97.7080837 131.1959,96.7776493 C132.499417,94.7374197 132.323795,95.7722477 133.885496,92.1506999 C135.447897,88.5291522 139.933589,79.5919373 142.30063,75.3846643 C143.165443,73.8453839 143.57336,73.1349468 144.163196,71.9950245 C145.114071,70.1565758 145.36106,68.5192074 145.787169,66.6394216 C146.213978,64.7596359 146.640088,62.606605 147.449625,61.0028668 C148.260562,59.3991286 149.330384,59.3178557 150.792029,59.3528871 C152.565036,59.3956255 154.248482,59.5427574 155.897644,59.2505954 C157.287222,59.0053755 158.537563,58.6634689 159.807494,58.2907346 C159.30232,58.9465227 158.882508,59.5602731 158.748168,59.9442174 C158.446603,60.8052896 158.428411,60.6721703 158.240895,60.9846505 C157.399872,62.3929134 156.303463,63.6155098 155.937526,65.1828154 C155.875954,65.4483535 155.888548,65.3250429 155.626166,65.7545281 C155.363783,66.1833126 154.868405,67.1256577 154.515063,67.8297891 C154.161721,68.53322 153.532003,69.7614214 153.129683,70.4907755 C152.726663,71.2201296 152.285861,72.1652772 151.947912,72.77062 C151.609963,73.3752623 151.154467,74.3021935 150.951558,74.6917429 C149.250619,77.9538683 147.589563,81.8864951 146.513444,85.0133993 C145.794166,87.1047748 145.38415,88.7288312 145.307884,90.3598939 C145.232318,91.9909567 145.591957,92.6775724 146.015967,93.8329085 C146.439277,94.987544 147.241818,95.3070305 148.000979,95.9964488 C148.429187,96.3859981 149.133772,96.6571413 149.509503,96.7215991 C150.135723,96.8294958 150.654191,96.936692 151.105489,96.7398154 C151.556787,96.5422382 151.859052,96.4609653 152.308251,96.3173365 C152.75745,96.1730071 153.370375,95.9684236 153.788088,95.8198904 C154.206501,95.6713572 154.561242,95.6412302 154.929278,95.6307208 C155.298712,95.6195107 155.465937,95.620912 155.768202,95.4499587 C156.070467,95.2790054 155.743013,95.3210431 156.318856,95.2481777 C156.893998,95.1739111 158.16323,94.6134085 158.898601,94.1362806 C159.095213,94.0080656 159.447155,93.7761576 159.719334,93.4006208 C160.483392,92.3468759 161.602191,91.3477799 162.611839,90.3661996 C162.90011,90.0859483 163.409482,89.4588859 163.635481,89.109973 C163.862179,88.7603595 164.160246,88.3960328 164.398839,88.1928506 C164.636733,87.9896683 164.625538,88.0183941 164.600349,87.7493528 C164.57516,87.4817128 164.893518,87.1923533 165.108322,87.0214 C165.324525,86.8504467 165.640084,86.5638897 165.824801,86.3915352 C166.009518,86.21848 166.166248,86.0860612 166.328576,85.9753619 C166.491603,85.863962 166.560172,85.7392502 166.610549,85.6138377 C166.660927,85.4884253 166.689614,85.5500805 166.805762,85.5073422 C166.92191,85.4646039 167.154906,85.4099549 167.244466,85.2810393 C167.334026,85.151423 167.482359,85.0631439 167.601306,85.0491313 C167.720253,85.03652 167.752438,85.0463288 167.79302,84.9545465 C167.833602,84.8634648 167.846196,84.7716825 167.887478,84.6799002 C167.928759,84.5874172 167.86089,84.542577 167.991031,84.6343593 C168.120474,84.7268423 168.254114,84.6273531 168.458422,84.4781192 C169.364517,83.8132229 170.655439,82.7006252 171.381014,81.9768761 C171.648295,81.7099367 171.788232,81.4619143 171.872894,81.5298753 C171.956856,81.5985368 171.602115,81.9523541 171.533546,82.0063025 C171.467076,82.0602509 171.302649,82.210886 171.348829,82.2788469 C171.395708,82.3475085 171.439088,82.2396117 171.437689,82.3376997 C171.437689,82.4364883 171.341132,82.5198631 171.261368,82.5612001 C171.180204,82.6025372 171.110235,82.6403711 171.027672,82.6116454 C170.945809,82.582219 170.896831,82.7272491 170.840156,82.8015157 C170.783482,82.8757823 170.724708,83.0159079 170.562381,83.0264173 C170.400053,83.0369268 170.0726,83.4117629 169.991436,83.5182584 C169.911672,83.6247539 169.480665,83.9652593 169.600311,84.0584429 C169.719258,84.1516264 170.242624,83.5736081 170.346877,83.4839276 C170.45113,83.3942472 170.967499,82.8085219 171.092743,82.9115143 C171.218687,83.0145067 170.911524,83.3830372 170.834559,83.5462836 C170.758293,83.70953 170.510604,84.1628365 170.443434,84.3372929 C170.376964,84.51245 170.379063,84.5089469 170.25172,84.5923216 C170.123677,84.6749958 170.16076,84.6042323 170.055108,84.8571591 C169.949455,85.1093853 169.729753,85.4190631 169.515649,85.8149181 C169.076945,86.6220419 168.626347,87.6113291 168.24012,88.5620817 C168.090387,88.9313128 167.861589,89.6550619 167.699962,90.0558213 C167.538334,90.4551794 167.317233,91.4584791 167.254261,91.7029984 C167.037358,92.5535612 166.837248,93.7677501 166.956894,94.359781 C167.076541,94.9511113 167.075841,95.2565853 167.057649,95.5872818 C167.027563,96.1400776 167.111525,96.9282844 167.393499,97.1482817 C167.676172,97.3675784 167.667776,97.1594918 167.737745,97.0480919 C167.807014,96.936692 167.871385,96.9997485 167.965843,97.0011498 C168.058901,97.002551 168.024616,96.9787297 168.067297,96.9058643 C168.109978,96.832999 168.085489,96.8512153 168.165953,96.7075865 C168.246417,96.5639577 168.371661,96.5317288 168.429035,96.7061852 C168.48641,96.8813423 168.489209,96.7881588 168.633344,96.7615349 C168.77678,96.7356116 168.784476,96.1765102 168.75439,96.0489959 C168.725003,95.9221822 168.675325,95.3749914 168.841151,95.3707877 C169.006277,95.3672845 168.975491,95.6734591 168.978989,95.8289986 C168.983887,95.9838374 169.095837,96.2591844 169.202889,96.4091188 C169.310641,96.5590533 169.443581,96.6816632 169.610807,96.6494343 C169.778731,96.6165048 169.857096,96.7825537 169.930563,96.8652279 C170.003331,96.9472014 170.040414,97.0999384 170.162859,97.0494931 C170.286704,96.9997485 170.259416,97.1826125 170.36227,97.1678993 C170.465824,97.1531861 170.623953,96.783955 170.614157,96.6452306 C170.605062,96.5058055 170.672231,96.2759995 170.784881,96.2816045 C170.896831,96.2879101 170.877939,96.3614761 170.934614,96.2710951 C170.990589,96.1800134 170.974496,96.1029443 170.984292,95.9901431 C170.994787,95.8773419 171.013679,95.5256265 171.064056,95.4618693 C171.115133,95.3988128 171.148718,95.4352455 171.159913,95.4555637 C171.239677,95.6026956 171.309646,96.0419896 171.34463,96.150587 C171.378915,96.259885 171.331336,96.601091 171.446085,96.52192 C171.560834,96.442749 171.595118,96.2178473 171.625205,95.9670224 C171.654592,95.7168981 171.768641,95.1998344 171.846306,94.8915579 C171.923272,94.5839821 172.142973,94.171312 172.324892,93.9835436 C172.50751,93.7964758 172.375269,93.9239902 172.447337,93.6626558 C172.518705,93.4013215 172.84266,92.9564225 173.091749,92.6579548 C173.140027,92.5998027 173.350633,92.3307614 173.493369,92.2102533 C173.636805,92.0904459 173.752253,92.0329944 173.821522,91.7310236 C173.890791,91.4290528 174.22874,91.1936416 174.671641,90.9953638 C174.871752,90.9056834 175.283867,90.3479833 175.465786,90.0046754 C175.942972,89.1064699 176.928831,87.8796697 177.762858,87.4740059 C178.193165,87.2652187 178.514322,86.9597447 178.595485,86.8364341 C178.918741,86.3438924 179.50158,85.5024378 179.904599,85.2390016 C179.910197,85.2376003 179.918593,85.2312947 179.92559,85.2277915 C179.962673,85.2053714 180.001156,85.1801488 180.034741,85.1682381 C180.430764,85.0344181 180.302721,84.987476 180.497234,84.8718723 C180.692447,84.755568 180.746323,84.586016 180.828886,84.4669092 C180.910749,84.3478024 180.699444,84.3134716 180.964625,84.3225797 C181.230506,84.3323885 181.819642,83.9652593 182.005059,83.6857086 C182.11561,83.5182584 182.419274,83.2029757 182.545217,83.2225933 C182.671161,83.2422109 182.488543,83.526666 182.466852,83.5722068 C182.444462,83.6184483 182.27234,83.9400367 182.375193,83.9344316 C182.477348,83.928126 182.508134,83.7382557 182.557112,83.6695941 C182.813897,83.3017643 183.081178,83.0642513 183.473002,82.8330439 C183.864127,82.6025372 184.196478,82.0700597 184.418279,81.6959242 C184.640779,81.3217887 184.968933,80.7963174 185.267699,80.602944 C185.567165,80.40887 185.602149,80.3212914 185.742087,80.0816765 C185.882024,79.841361 185.919107,79.7229548 186.072339,79.4672255 C186.22487,79.2128974 186.412387,78.8513732 186.567717,78.5599118 C186.722348,78.2684504 186.892372,77.9405564 187.156853,77.7310685 C187.422035,77.5222813 187.487805,77.2539406 187.670423,76.9358554 C187.853042,76.6177701 188.155306,76.1742724 188.390401,75.847079 C188.322532,76.3073918 188.111926,76.649999 187.832051,77.0507584 C187.552176,77.4522185 187.293292,77.8943149 187.063095,78.386156 C186.832898,78.8772965 186.577513,79.3866532 186.285743,79.9065195 C185.994674,80.4263857 185.574861,81.2047837 185.300584,81.7176437 C185.026307,82.2312042 184.721243,82.7987131 184.530229,83.2239945 C184.339914,83.6478747 184.239859,83.8377449 184.064937,84.1635371 C183.889316,84.4893293 183.837539,84.6245505 183.594048,84.9244195 C183.351257,85.2242884 183.114063,85.7203332 182.917451,86.1133857 C182.721538,86.5064382 182.300327,87.27783 182.126105,87.5840046 C181.951183,87.8908798 181.715389,88.2545059 181.766466,88.4044403 C181.817543,88.5543748 181.830137,88.5494704 182.006459,88.2951423 C182.183479,88.0422155 182.518629,87.4620952 182.810399,86.9359234 C183.102168,86.4097515 183.533175,85.7119257 183.936895,85.0190043 C184.778618,83.5729074 185.608446,82.107193 186.502646,80.480334 C186.719549,80.084479 187.289094,78.8576789 187.56617,78.3455196 C187.657129,78.1794706 187.881029,77.7808131 187.921611,77.7128522 C188.597509,76.5974519 189.470018,75.2326279 189.66593,74.050668 C189.738698,73.6078709 189.635844,73.7627097 189.870239,73.4537326 C190.105334,73.1454562 189.691819,73.4740509 190.343927,73.0887053" id="Fill-11" fill="#FFFCFF"></path>
                <path d="M238.355948,50.8774564 C236.8992,50.9636337 233.248934,50.5334479 232.325347,50.2574004 C230.233983,49.6352424 229.36917,49.7004009 227.706714,49.7319291 C226.044258,49.7641581 224.769429,49.7578524 223.230118,49.3956276 C221.690807,49.0341033 220.617487,48.3664046 219.551164,47.213871 C218.974623,47.0148925 218.1315,46.7710739 217.580846,47.0534271 C217.030892,47.3350797 216.592189,47.8262201 216.250042,48.2248776 C215.908595,48.6228345 215.325756,49.0866505 214.983609,49.1244844 C214.640762,49.1616177 214.647759,49.1272869 214.475636,49.0929561 C211.148625,48.4182511 207.678179,48.1569167 204.472913,49.0544216 C200.126458,50.2721136 199.516332,52.4594752 201.839292,56.1006406 C202.951094,56.5077056 204.32388,56.9967442 204.887827,58.0567948 C205.452475,59.1161448 205.227875,59.8356901 204.722002,60.8810276 C204.214729,61.9256644 203.435278,62.9485817 202.659325,63.9406714 C201.884072,64.9320605 200.779266,66.1665676 200.013109,67.1523516 C199.246952,68.1367344 198.451408,69.0104179 198.004308,70.092188 C197.10661,72.2620339 196.251593,74.0521393 195.057927,76.122496 C193.864261,78.192152 192.508268,80.7417385 191.526608,82.9269982 C190.544247,85.1122579 190.039773,87.0515971 189.758499,89.3699762 C190.312651,90.3858873 191.265624,91.017854 192.314455,91.1811004 C193.363985,91.3443468 194.019592,91.4487404 194.848021,91.9966318 C197.365494,91.6596295 199.687755,92.1970115 202.239513,92.6468148 C204.790571,93.0966182 207.680977,93.5422178 210.328592,92.8885316 C214.496627,93.0055365 219.329364,92.5108929 223.279096,92.0274594 C227.229528,91.5440259 230.28506,91.0907193 234.085759,90.8602126 C232.806732,90.8258818 231.478026,90.8826327 230.26337,90.6395147 C230.871398,90.5736556 232.195205,90.4356319 232.673091,90.390091 C234.649007,90.2009214 236.240795,90.0839164 238.085869,89.8029645 C237.262337,89.7104816 236.112052,89.5556427 235.428458,89.2277486 C234.744864,88.8998546 235.294118,88.4997958 235.472538,88.113049 C234.742065,88.0801195 233.522511,88.2090351 232.859208,87.807575 C233.206952,87.6891689 233.831773,87.5455401 234.136836,87.4565603 C234.4419,87.3682811 235.123395,87.3563704 235.203159,87.2694925 C235.282923,87.1826146 236.133043,87.2729956 235.621572,87.0011519 C235.1108,86.7286074 234.826728,86.7881608 233.463738,86.6459333 C231.280015,86.4189297 227.658436,85.9572157 224.944351,85.6370285 C222.230265,85.317542 219.11456,84.9279927 216.271732,84.6561489 C213.428905,84.3850057 210.434945,84.2329694 207.544538,84.0795318 C206.813366,84.2329694 205.609205,84.4032221 204.975288,84.4137315 C204.341372,84.4249415 203.990829,84.3653881 203.702558,83.9982589 C203.414987,83.6311296 203.415686,83.4868002 203.398194,83.0208824 C203.380702,82.5542639 203.662676,82.0400027 203.924359,81.5502635 C204.186741,81.061225 204.519092,80.4993211 204.872434,79.9703467 C205.225076,79.4413723 205.713458,78.7806798 206.093388,78.241196 C209.745053,77.5896117 213.202906,77.4277665 216.953927,77.2266862 C220.704248,77.0256059 224.690364,76.725737 228.429491,75.8121176 C229.23483,75.8352384 230.744055,75.7140297 231.367476,75.6166423 C231.990197,75.5178537 232.300858,75.4611028 232.548547,75.2039722 C232.796936,74.9468417 232.619216,74.8781801 232.716472,74.6413677 C232.814428,74.4045553 232.647203,74.3106711 232.789239,74.0276173 C232.932675,73.7445635 233.163572,73.6590868 233.70513,73.545585 C234.245987,73.4327839 235.599881,73.2513211 236.282776,73.2296017 C235.709732,73.27234 234.561546,73.2338054 234.092056,73.1448256 C233.622566,73.0565465 233.259429,72.9759742 233.710027,72.7419643 C234.921885,72.1128001 236.323358,72.1156026 237.650664,72.2305057 C237.442857,72.1015901 236.594136,71.926433 236.455598,71.8605739 C235.874159,71.585227 234.074564,71.5515968 233.97241,70.9791835 C233.870256,70.4067702 236.046282,69.9990045 236.354844,69.7278613 C235.997304,69.7166513 232.017485,69.8602801 232.137131,69.2016895 C232.256078,68.5430988 235.094708,68.9746859 235.618073,68.9249413 C232.042674,68.8065351 228.350426,68.2670513 224.768729,67.8109422 C221.187032,67.3569351 217.533967,66.7810186 213.921484,67.2469365 C213.801838,65.6396951 214.159378,64.6623186 215.544058,63.6288918 C216.929438,62.5947644 218.767515,61.93197 220.550317,61.6608269 C222.33242,61.3889831 224.043854,61.4632497 225.783275,61.9354732 C226.722955,61.8443915 240.265393,60.9559948 236.65361,58.3958989 C236.088263,58.4162171 234.583236,58.4260259 234.222898,58.3755807 C233.862559,58.3244348 233.090804,58.48628 233.438549,58.1485771 C233.786293,57.8108743 235.215753,57.4717702 235.858066,57.3204345 C236.309364,57.2146396 237.753518,56.7234991 237.992111,56.7045822 C238.70859,56.6492325 239.718238,55.8645288 239.224959,55.7237025 C238.412623,55.4917945 237.653462,55.7958672 237.015348,55.7468233 C235.928035,55.6641491 236.924389,55.3271469 237.168579,55.2276577 C237.629673,55.0398893 239.563607,54.8353058 239.582499,54.3119365 C239.600691,53.7885671 237.586292,54.0456977 237.291025,54.0169719 C237.267935,54.0155707 236.96637,53.9258903 236.948878,53.9062727 C236.850922,53.7997772 235.823082,53.7794589 236.008499,53.4319473 C236.194615,53.083735 237.32391,53.0220797 237.773808,52.938705 C238.340555,52.8343113 239.823191,52.5631682 238.75267,51.8268078 C238.885611,51.7798657 239.895959,51.4393604 239.695848,51.1773254 C239.495738,50.9152904 238.682002,50.8585395 238.355948,50.8774564" id="Fill-13" fill="#FFFCFF"></path>
                <path d="M417.129993,86.298842 C417.202761,86.2918357 417.281126,86.2799251 417.348295,86.2764219 C417.366487,86.2673138 417.278327,86.2785238 417.129993,86.298842" id="Fill-15" fill="#FFFCFF"></path>
                <path d="M417.129993,86.298842 C417.000551,86.312154 416.86901,86.3296697 416.728373,86.3541917 C416.883004,86.3338734 417.022941,86.3135552 417.129993,86.298842" id="Fill-17" fill="#FFFCFF"></path>
                <path d="M511.350662,56.5385333 C511.292588,56.5798703 511.148453,56.714391 510.95394,56.8993568 C511.08758,56.7774475 511.225418,56.6534363 511.350662,56.5385333" id="Fill-19" fill="#FFFCFF"></path>
                <path d="M510.95366,56.8991466 C510.414202,57.3874846 509.813171,57.9262678 509.18975,58.4804648 C509.816669,57.9851205 510.516356,57.3139186 510.95366,56.8991466" id="Fill-21" fill="#FFFCFF"></path>
                <path d="M52.8432887,56.6809009 C52.6494754,56.9184139 52.4556622,57.1566276 52.2618489,57.3948412 C52.5955995,57.4740122 52.8432887,57.4515921 52.8432887,56.6809009" id="Fill-23" fill="#FFFCFF"></path>
                <g id="Group-27">
                    <mask id="mask-2" fill="white">
                        <use xlink:href="#path-1"></use>
                    </mask>
                    <g id="Clip-26"></g>
                    <path d="M47.9355453,58.6109918 C51.7572348,53.0150734 56.8271656,48.5422623 60.6929354,43.2090795 C61.974062,41.5240684 63.2020124,39.8845982 64.2991213,38.4167818 C64.9575267,35.5301932 68.4615583,34.7314769 68.8813704,31.7201764 C68.3251194,32.3500412 68.3251194,32.3500412 67.7695681,32.9792055 C72.566621,23.7421217 79.2346366,16.1907497 85.7962998,8.84255993 C85.8641694,8.47052629 85.2827296,8.86217752 84.9034993,9.00090193 C75.00433,14.6409599 68.404184,23.3841007 60.5327071,30.4653511 C59.4572884,31.5141916 58.2643224,32.6779353 56.9943908,33.9166461 C55.4123988,35.4622322 53.7058626,37.129027 52.0245151,38.7705991 C50.3438674,40.41077 48.6877086,42.0299221 47.2029731,43.4858277 C41.4585442,48.8267174 35.8337617,53.9286928 31.1983364,60.1923099 C30.8918736,60.5461272 30.3755047,61.0842098 30.0095685,61.4352246 C29.6436323,61.7862393 29.3714541,62.1106303 29.0712884,62.5233003 C28.7711228,62.936671 28.6507766,63.083803 28.2274661,63.5434152 C26.038146,65.9129401 23.5045799,68.6706132 21.6273202,71.2426197 C20.8835531,72.2599321 20.1614762,73.5392794 19.6556027,74.2784422 C19.1497291,75.0176051 18.9922995,75.6572788 18.8047835,76.024408 C18.6172674,76.3908366 18.1960559,77.2561126 18.1631706,77.1103819 C18.0092395,76.4153586 18.2681237,75.3279835 18.3038077,74.544681 C18.338792,73.7620792 18.408061,72.589928 18.5067169,71.9299361 C18.7725979,70.1538433 18.9083371,68.716154 18.9776061,67.012226 C19.0125904,66.1616632 19.0734632,65.6403957 19.2343912,64.727477 C19.3953191,63.8159596 19.3876226,63.7101647 19.5240615,62.4182061 C19.6605005,61.1255468 19.79554,60.3415438 20.1271916,58.2032261 C20.4595428,56.0642079 21.0339857,51.5087226 21.3187583,48.7769728 C21.6035308,46.0452229 21.701487,41.4967439 21.9057955,38.9338455 C22.4725419,31.8343788 22.3081155,20.6901848 22.2773292,14.3999437 C22.2563386,10.2031801 22.1954659,7.65849807 21.7896475,4.791527 C21.3838291,1.9238553 21.1662265,2.32601595 19.7416641,0.590559609 C19.2064037,-0.0610247264 18.7949878,-0.0547190716 17.9308746,0.0573814592 C16.2859108,0.273174981 15.7513501,-0.658660681 14.5275978,1.40749223 C13.3031458,3.47434576 12.8546466,4.84477475 12.4530263,8.51256399 C12.3123893,9.79611507 11.5441331,16.0541272 11.3104377,18.8377235 C11.0767423,21.6220204 10.6611283,29.7163794 10.3973464,32.2792778 C10.1342642,34.8428768 9.96913807,35.9197425 9.77882325,37.7238604 C9.58780874,39.5293796 9.58500999,38.7453765 9.51154287,40.7800011 C9.43807576,42.8146258 9.1966838,46.6996098 8.84334194,49.155312 C8.03100553,54.8128857 7.26065032,60.5902668 6.50778728,66.1728732 C6.32097089,67.553111 6.30207935,67.5580154 6.04669365,69.1071046 C5.63877623,71.579622 5.50513604,72.3566188 4.99506434,75.8443465 C4.61583407,78.4401744 3.84547886,83.6703648 3.19896822,87.5028017 C2.9820653,88.782149 2.75186833,90.2786911 2.52307074,91.8803275 C2.29427314,93.4826644 2.06617523,95.1900956 1.85556949,96.8933231 C1.00335093,106.889888 -2.72597992,118.625412 3.66705872,127.161167 C12.1906438,118.625412 15.9199746,106.889888 22.8454749,97.2877768 L22.8454749,97.820955 C26.5748058,93.0195491 28.7060519,87.1517869 32.327631,82.4687873 C33.1588589,81.0962564 34.0068794,79.7356362 34.8702929,78.3862261 C39.1838623,71.639876 43.856371,65.1618666 48.5414741,58.693666 C48.3560571,58.6607364 48.1440519,58.5990811 47.9355453,58.6109918" id="Fill-25" fill="#FFFCFF" mask="url(#mask-2)"></path>
                </g>
                <g id="Group-30" transform="translate(246.000795, 13.928789)" fill="#FFFCFF">
                    <path d="M137.962433,55.8341034 C137.961733,55.8453135 137.959634,55.8565235 137.958235,55.8677336 C134.654314,55.8600267 131.022239,55.8502179 131.125793,55.6449338 C131.218851,55.4606685 134.650815,55.3990132 138.16954,55.3899051 C138.098872,55.5398395 138.034501,55.6820671 137.962433,55.8341034 M137.843486,56.7372133 C134.922294,56.7771491 132.134042,56.8808421 130.637412,56.9726244 C130.713677,56.962115 130.786445,56.9516056 130.84102,56.943198 C131.239842,56.8815428 134.703292,56.7701428 137.860978,56.6012914 C137.853282,56.6468323 137.851183,56.6916725 137.843486,56.7372133 M136.772266,67.161862 C136.04739,68.1259266 135.477845,68.6436909 134.449305,69.1474427 C133.420066,69.6504938 132.283775,70.0470495 131.202059,70.5101648 C130.135036,70.9676751 129.039327,71.437096 128.031778,72.0480439 C128.030378,72.0221207 128.030378,71.9933949 128.030378,71.9688729 C127.998193,70.8674852 128.037375,61.930971 128.144427,60.9234675 C128.251479,59.9166646 128.527156,59.1852087 129.12049,58.5041979 C129.45774,58.1153492 133.776906,57.9500009 137.548218,57.8890463 C137.357204,58.4649627 137.107416,66.7176637 136.772266,67.161862 M120.771827,51.8797572 C120.523438,53.0799335 120.016165,55.0325846 118.409684,54.2135501 C117.549769,54.3046318 116.130105,55.0893355 115.320567,54.4503625 C114.511029,53.8113895 117.388841,51.3802092 117.999668,50.9002788 C118.296335,50.6662689 119.812556,49.2734199 120.059546,48.9665447 C120.306535,48.6589688 120.361111,48.3878257 120.558423,48.5566771 C121.385452,49.2636111 120.978235,50.8806612 120.771827,51.8797572 M55.2748419,38.3247011 C54.4771989,38.6659071 53.6522682,39.0183232 52.8273374,39.2908676 C46.9359742,41.2400156 40.6108052,43.3082704 32.3188165,45.9972818 C32.1271023,46.0596378 31.9262921,46.1388088 31.723383,46.2179798 C31.0845689,46.4681041 30.4219654,46.7273366 29.9678687,46.505938 C28.879156,45.9790655 27.8415204,45.2097756 26.8381695,44.466409 C26.4575398,44.1840558 26.0650155,43.893295 25.6717915,43.6172474 C26.0622168,42.8633714 26.4470445,41.9224276 26.8185782,41.0116107 C27.6400106,39.0001068 28.4901301,36.9199414 29.377333,36.8484773 C36.0810326,36.3033884 42.9295674,36.2907771 49.5535027,36.2795671 C51.7029406,36.2760639 53.925146,36.2718602 56.1116674,36.2494401 L56.3208738,37.8833053 C55.97173,38.0269341 55.6225863,38.1754673 55.2748419,38.3247011 M288.555812,3.29846104 C285.693836,5.38028037 281.812734,8.6542449 277.409849,12.5626215 C263.37502,25.0211346 248.038324,39.9259556 239.508684,47.2121713 C236.864567,43.2683345 234.906843,39.8562746 231.793237,36.0035195 C228.678931,32.1521657 217.69775,15.7298918 213.999205,12.0712107 C206.880591,11.66905 213.714728,26.8946508 215.772507,31.0844081 C211.076909,30.5547331 206.356821,30.2079221 201.637434,29.8821299 C199.693704,29.9549953 197.785658,29.9655047 195.832132,29.9549953 C193.878606,29.9451865 191.857911,29.9269701 189.901586,29.9844217 C188.923424,30.0131474 187.951559,30.0797071 186.985991,30.1848014 C186.503207,30.2366478 186.021823,30.2990038 185.541838,30.3704679 C184.577669,31.0045365 184.577669,33.8070498 182.359662,31.5650391 C181.742538,30.9589956 181.162498,30.9596963 180.59995,31.0879113 C180.038101,31.2161262 179.496543,31.457843 178.898311,31.8733156 C177.701147,32.7042608 176.424219,34.1517589 175.530718,35.2797705 C174.637918,36.4070814 174.011698,37.2821662 173.012546,38.2679502 C169.869552,42.4002561 166.265465,55.0465972 163.676624,59.3288375 C162.783824,60.8050613 162.004372,62.2378462 161.293491,63.661523 C162.200984,63.6278928 163.382056,63.7042613 164.309841,64.1890961 C166.057658,65.1027154 162.347219,64.9317621 162.347219,64.9317621 L163.361765,65.7669111 L165.145966,66.7765165 L159.852136,66.7540964 C156.04374,66.6497027 152.234645,66.6356902 148.418553,66.7786184 L150.037629,61.9232641 C151.814833,57.6970741 153.247792,49.7960886 154.176976,48.0550272 C154.738125,47.3305775 155.361546,46.4001431 155.77646,45.6511715 C156.191374,44.9014992 156.459354,44.3774292 156.772114,43.6410688 C157.085574,42.9047085 157.326966,42.0520438 157.592847,41.3079765 C157.858728,40.5639092 158.136504,39.4162801 158.410781,38.8102366 C159.041898,37.4138843 159.694706,36.2010967 159.784966,34.7837256 C159.875225,33.3670552 159.804557,32.1942034 159.054493,30.9982308 C158.304428,29.8022583 157.616636,28.6216996 155.984967,28.2265452 C154.364492,27.8341933 152.845472,28.5677512 151.41881,30.1357574 C149.611519,32.1241405 147.792333,34.5987598 146.276112,37.3319108 C144.76059,40.0650619 142.909219,44.0102999 141.63299,46.9410282 C140.520488,49.495519 139.558419,51.7053007 138.452214,54.081832 C134.825037,54.0047629 130.762655,53.9010699 130.390422,53.6908814 C129.731317,53.3195484 129.535405,52.8634394 129.321301,52.1579066 C129.107196,51.4530745 129.03303,50.7629557 129.014838,49.9488256 C128.997346,49.1346954 129.084107,48.2063629 129.179964,47.3186668 C129.276521,46.4309708 129.428353,45.4087541 129.580185,44.4986379 C129.732017,43.5885217 129.854462,42.6279603 129.935626,41.719946 C130.016789,40.8133329 130.048275,39.9788846 130.062969,39.0673672 C129.483628,37.9827945 129.533306,36.6726196 129.816679,35.6216771 C130.101451,34.570034 130.585635,33.8427818 130.284769,32.8485902 C129.985303,31.8543986 129.318502,31.9188564 128.079356,32.0036325 C126.55194,32.1080261 124.881088,32.5038811 123.296997,33.7685152 C121.712206,35.0338499 119.716,36.9283489 118.228465,38.5958443 C116.741631,40.2640403 115.808948,41.2456206 113.95058,42.9544531 C112.092212,44.6632855 110.015541,46.8044057 107.834618,48.930112 C105.654393,51.0558183 102.613554,53.9767377 100.00862,55.9097713 C98.3027837,56.4051155 96.8103517,56.5144135 95.0219521,56.7400158 C94.0430902,56.864027 92.8921054,57.0391841 91.7817024,57.2886078 C91.7845011,57.2703915 91.7893989,57.2521751 91.8033927,57.2283538 C91.885256,57.0882281 91.8649651,56.9803313 91.849572,56.901861 C91.8355783,56.8254925 91.827182,56.7827542 91.9069463,56.6881693 C92.0965615,56.4597645 92.2022142,56.3693835 92.6465153,56.2516779 C93.0306434,56.1500868 93.7562186,55.9658215 94.3033737,55.8691348 L94.2704885,55.6435325 C93.8870601,55.6869715 93.3685921,55.689774 93.0579312,55.6911752 L92.9277894,55.6918759 C92.7213818,55.6967803 92.5870419,55.6666532 92.5317667,55.6442331 C92.544361,55.6316218 92.5632526,55.6155074 92.5940388,55.5944885 C93.4350624,55.0136677 94.5027845,54.9443055 95.5348226,54.8777458 L96.0602874,54.8427143 L95.6999487,54.6542453 C95.5677079,54.5848831 95.3004275,54.5365398 95.064633,54.4938014 C94.9435872,54.472082 94.8295382,54.4510631 94.7812599,54.4349487 C94.5608585,54.3613827 94.2837825,54.3473701 93.9906137,54.3319563 C93.3350072,54.2976255 92.8984026,54.2464797 92.8088427,53.8653378 C92.7248802,53.5073168 93.1838748,53.3167459 93.793302,53.1051561 C94.092768,53.0014631 94.3509525,52.9117827 94.4936886,52.7821665 L94.8162442,52.4886032 L94.3915343,52.5859905 C93.7744105,52.7268168 91.8712623,53.0399977 91.2450426,52.637837 C91.1463867,52.5747805 91.0883127,52.4977114 91.0694212,52.4045278 C91.0554274,52.3386687 91.0624243,52.285421 91.0911115,52.241982 C91.1407892,52.1670148 91.2625347,52.1074614 91.443054,52.0703281 L91.9104448,51.974342 C92.4883861,52.0016665 93.0663274,52.0275898 93.6232781,52.0310929 C93.3357069,52.0114753 92.7528677,51.9309031 92.2036135,51.914088 L92.3015697,51.8937698 L91.4269612,51.8440252 C88.9073889,51.6996957 86.3115507,51.3774067 83.8808386,51.0502133 C80.6489851,50.6151231 78.345616,50.483405 75.5713577,51.0340988 C75.6091408,50.9107882 75.6455245,50.7909808 75.6805089,50.6753771 C76.0905254,49.325967 76.3375148,48.5111362 77.6431304,47.4426781 C77.9300021,47.2086682 78.2147746,46.9571426 78.4911509,46.7140246 C79.6757207,45.6700884 80.9001727,44.5911208 82.7431478,44.3388946 C84.8757933,44.0488345 87.7109244,44.185457 89.9891047,44.2968569 L90.5523526,44.3227802 C91.0225422,44.2905513 91.7313249,44.294755 92.553457,44.2982582 C96.1834323,44.3199777 102.244819,44.3480028 102.290999,41.4011601 L102.293098,41.2722445 L102.164355,41.2855564 C101.648686,41.340906 100.506797,41.3367023 100.14226,41.3114797 C100.028911,41.3009702 99.8917725,41.310779 99.7581323,41.3184859 C99.6517799,41.324091 99.504146,41.3303966 99.4138864,41.3247916 C99.4194839,41.3191866 99.4257811,41.3128809 99.4334776,41.3065753 C99.6664734,41.0956861 100.340971,40.9457517 100.883229,40.8266449 C101.161704,40.7642889 101.402396,40.7117418 101.561925,40.6556916 C102.854946,40.2065888 103.219483,40.112004 103.297848,40.112004 C103.766638,40.112004 104.509706,39.6902257 104.626553,39.3595292 C104.667135,39.2446261 104.638448,39.1381306 104.548888,39.0666665 C104.20954,38.7941221 103.731654,38.8971145 103.306944,38.9860943 C103.095639,39.0309345 102.896927,39.0722716 102.758389,39.0554565 C102.619852,39.0372401 102.539388,39.0190238 102.493208,39.0043106 C102.564576,38.9573685 102.691919,38.8950126 102.784278,38.8501724 L102.853547,38.8158416 C102.953602,38.7674982 103.151613,38.7233587 103.36152,38.6778178 C103.935962,38.5517047 104.72241,38.3786495 104.651042,37.8230513 C104.63425,37.6885306 104.573377,37.5813345 104.471223,37.5063673 C104.190648,37.2996819 103.67428,37.3907636 103.218084,37.4713359 C103.041763,37.5021635 102.875237,37.5315899 102.770984,37.5315899 C102.7346,37.5315899 102.590465,37.510571 102.517697,37.4643296 C102.468019,37.4328013 102.395252,37.4264956 102.249017,37.4166868 C102.135668,37.4089799 101.834803,37.3886617 101.799819,37.322102 C101.798419,37.3178982 101.798419,37.2954781 101.825707,37.2499373 C101.980338,36.9921061 102.347673,36.9311514 102.7353,36.865993 C102.873138,36.8435729 103.010277,36.8204521 103.139719,36.7875226 C103.74075,36.63969 104.049312,36.4491191 104.111584,36.1877848 C104.147968,36.0364491 104.091993,35.8767058 103.945758,35.7120581 C104.197645,35.6076645 104.444635,35.4780483 104.512504,35.2853755 C104.543291,35.197797 104.534195,35.1067153 104.485217,35.020538 C104.335484,34.758503 103.929665,34.6674213 103.276158,34.7437898 C101.99853,34.8965268 99.3705058,34.6877395 98.313279,34.5490151 C96.0777796,34.2561525 94.6979971,34.3192091 92.6877968,34.4579335 C92.1945176,34.4915636 91.7047368,34.5322001 91.2170551,34.5714352 C89.7554093,34.6919433 88.3721284,34.8096489 87.0105378,34.7549999 C85.1171853,34.684937 83.9822932,34.2274267 82.5500342,33.406991 L82.519248,33.3950803 C82.0581544,33.2899861 81.1933415,33.1624717 80.5748183,33.4903658 C80.0584494,33.7643114 79.7093057,34.2407387 79.4287313,34.6232817 L79.3825519,34.684937 C79.3552641,34.7220703 79.1957355,34.9021318 78.5940049,35.5488117 C78.3729038,35.7884266 78.0902303,36.0939006 77.7627769,36.4498198 C77.764876,35.6391928 77.5696633,34.7851269 77.1575478,33.789534 C76.2241655,31.5349121 74.5330225,29.9977336 71.5040781,28.6504253 C68.8641597,27.4768729 65.2264878,26.4721719 62.0107271,26.0286742 C59.2287722,25.6461311 56.1585464,25.2874094 52.5558589,25.2551805 C49.5842889,25.2271554 46.0823563,25.4016118 42.9904401,25.5557501 L40.8864818,25.6594431 C37.8022622,25.8100781 34.8887662,25.9530063 31.850726,26.0202666 L31.8213391,26.025171 C29.2919712,26.7587289 26.7178233,27.1706983 23.4733755,27.3584667 C20.3471747,27.5399295 17.0691418,27.7844487 14.3753475,28.5817638 C11.6136836,29.4007983 9.7826031,30.3473471 7.61987108,32.0750966 C5.54320055,33.7355857 4.51675996,35.9194441 3.61486362,38.6876266 L3.59807114,38.7387725 L3.62605861,38.7836127 C4.28516361,39.8464658 5.00794012,40.3964591 6.11904282,40.6830161 C7.22804645,40.9667705 8.4056194,40.9163253 9.61467826,40.8322499 C9.82808274,40.8175367 10.0449857,40.800021 10.265387,40.7825053 C11.201568,40.7054362 12.1706343,40.6262652 12.9808716,40.7769003 C13.214567,40.8203392 13.43147,40.8441606 13.6231842,40.8651794 C14.2745926,40.9352423 14.7055997,40.9821843 15.1058206,41.7003284 C15.5326295,42.4654145 15.2849404,43.1849598 14.9714807,44.0964772 C14.8994129,44.308067 14.8231471,44.5287649 14.751779,44.7613735 C14.5880523,45.2973542 14.001015,46.6852989 13.8253936,47.0979689 C12.7982534,49.5039266 11.5556095,52.0570162 10.3535476,54.5260303 C9.69304318,55.8831474 9.06892252,57.1645966 8.47418871,58.4320332 C6.60392579,62.4158058 5.19195776,66.1249321 4.05776539,69.2273143 C2.67798295,72.9987966 1.26391585,77.5984215 0.364818261,81.2311793 C-0.129160647,83.2251675 -0.171841544,84.123373 0.55093496,85.5120183 C1.11698161,86.5986928 2.01537951,86.6155079 2.88299119,86.6316224 C3.16636436,86.6365268 3.45953315,86.6428324 3.73520976,86.686972 C4.86170557,86.8684347 5.73071662,86.6225142 6.75995596,86.9581152 L6.88100178,86.9973503 L6.90758988,86.8726385 C7.08461065,86.0444958 7.55130177,84.7336202 7.9963026,84.0603164 C8.36223882,83.5068201 8.43360688,83.5089219 8.88910301,83.5117245 L9.03463787,83.5124251 C9.18646991,83.5124251 9.30821542,83.5250364 9.41806626,83.5355458 C9.74202126,83.5670741 9.97781573,83.5922967 10.4445068,83.2693071 C11.0301447,82.8664458 11.5793989,82.015883 11.885162,81.3159553 C13.4125784,81.8176052 14.4705049,81.996966 15.9685344,80.6216327 C17.4182856,79.2932414 18.8295539,77.2340947 19.897276,75.5890194 C20.891531,74.0588472 21.8584982,72.7654873 23.3278406,71.4483061 C26.30081,74.1933678 27.5063704,76.8228259 28.9001466,79.8635528 C29.690093,81.5877991 30.5073272,83.3708982 31.734578,85.4167329 C32.9625284,87.4653701 35.19313,91.3398446 37.7763738,95.8259678 C42.4020035,103.861474 48.1597265,113.862243 50.7135834,117.786462 C51.0137491,118.249577 51.3342057,118.782755 51.6168791,119.253577 L52.108759,120.071211 L51.9891125,119.442747 C51.9674222,119.329946 51.8330824,118.882244 51.8134911,118.819188 C51.7344265,118.562758 51.6112816,118.25238 51.4804402,117.923785 C51.1452902,117.080929 50.7289765,116.032789 50.9248889,115.494707 C50.9563748,115.407829 50.9941579,115.355281 51.0284425,115.351078 C51.0319409,115.350377 51.0354394,115.349676 51.0389378,115.349676 C51.1921692,115.349676 51.5028302,115.775658 51.6896466,116.032789 C51.8890573,116.306735 52.0177997,116.477688 52.1346474,116.544948 C52.2263064,116.598897 52.3620456,116.793671 52.4928871,116.982841 C52.7783593,117.39411 53.1324008,117.909072 53.5634079,117.789264 C53.6312775,117.771048 53.7257353,117.722004 53.784509,117.588885 C53.9755235,117.156597 53.6515685,116.073426 53.4164737,115.432351 C53.5291233,115.534642 53.6410732,115.637635 53.7537227,115.740627 C54.4583074,116.383804 55.1866814,117.049401 56.0193087,117.565063 L56.4475171,117.829901 L56.1760386,117.40532 C56.0920762,117.274302 55.9990178,117.141884 55.9066591,117.009465 C55.8184986,116.884052 55.7303381,116.75864 55.6512734,116.634629 C55.5645123,116.500108 55.4329712,116.341066 55.3063278,116.187628 C55.1845823,116.040496 55.069134,115.901071 55.0075616,115.802282 C54.8823176,115.596998 54.8487326,115.49891 54.8410361,115.456873 C54.9501872,115.466681 55.2265635,115.606807 55.3658012,115.67687 C55.4301724,115.709799 55.4924445,115.740627 55.5463204,115.76655 L55.7793161,115.875848 L55.7044496,115.629227 C55.6526728,115.456873 55.5743079,115.254391 55.4910452,115.039999 C55.2391579,114.389816 54.9249985,113.579889 55.1670902,113.12308 C55.1992757,113.061424 55.2335604,113.029195 55.2685447,113.026393 C55.4427668,113.026393 55.7513287,113.44677 55.9374454,113.699697 C56.1669426,114.013578 56.2830907,114.164914 56.3999384,114.179627 C56.4531146,114.206952 56.5699623,114.41714 56.6476275,114.556565 C56.8218495,114.869746 56.9855762,115.166812 57.1975814,115.166812 C57.2038785,115.166812 57.2101757,115.166812 57.2157732,115.166112 C57.3969921,115.151399 57.4774561,114.928599 57.5040442,114.855733 C57.7083527,114.289626 57.5397282,113.834918 57.2850422,113.1462 C57.1521017,112.788179 57.0023687,112.381815 56.8652301,111.858446 C56.260001,109.557582 55.1335052,105.274641 53.8257905,102.202386 C52.573351,99.2611484 45.1524724,83.7443331 43.5131062,80.639849 C41.7869788,77.3700166 39.9558983,74.1674446 38.2346687,71.1932774 C37.2572062,69.5054638 36.0677385,67.5556152 34.9167537,65.6702244 C33.8021526,63.8436863 32.650468,61.9561937 31.6646093,60.2641763 C32.4363639,59.6434196 37.7189995,58.4327338 38.6887654,58.4432433 C38.685267,58.4460458 38.6810689,58.4481477 38.6775704,58.4502496 C35.1028704,60.5423257 35.204325,60.737801 35.284789,60.8947418 C35.354058,61.029963 35.4499151,61.2163301 38.4739616,59.9937337 C39.9670933,59.3897921 41.6834251,58.6380179 42.7000701,58.1784058 C44.7648459,57.2437676 46.8813986,56.2446716 49.1217959,55.1874235 C54.6045419,52.5993025 60.2748041,49.9236029 65.1215348,48.2596107 C66.2347366,47.8784689 67.1128435,47.5687912 67.846815,47.2794317 C66.8133776,48.400437 66.2144456,49.0401106 66.019233,49.2306815 C65.5063626,49.7316308 64.9186256,50.2479938 64.3490805,50.7468412 C63.9215719,51.1216774 63.4786701,51.5098254 63.0714524,51.889566 C62.701318,52.2342751 62.3220878,52.5516598 61.9561515,52.858535 C61.3894052,53.333561 60.8037673,53.8247014 60.2405194,54.423038 C58.2429135,56.5494449 55.9213526,58.9217724 54.3260666,60.5374213 C52.2235076,62.6638283 50.5183708,64.8883232 49.5234161,66.8017391 C48.6257179,68.5273866 48.3472425,69.6981366 47.9946004,71.1799654 C47.9162355,71.5078595 47.8336724,71.8539699 47.7399144,72.2267042 L47.72732,72.2757481 L47.7553075,72.3177858 C48.2996638,73.1459285 49.0686197,73.7337557 49.9201386,73.9740712 L50.1608308,74.0413315 C50.8878055,74.2431125 51.4622483,74.4035563 52.1150562,74.7945069 L52.142344,74.8099208 L52.1745295,74.8099208 C54.099368,74.8050164 55.8527833,75.0656501 57.7097521,75.3501052 C58.0302087,75.3991492 58.3555631,75.4488938 58.6865149,75.4979378 C61.4110955,75.9043022 63.6354,75.8811815 65.670789,75.4285756 C68.8830512,75.1490249 72.4206679,74.434384 75.5405715,73.8038185 L75.914904,73.7281506 C79.1607512,73.0737638 81.7789793,72.6638962 84.7134659,72.2484236 L84.6924753,72.0207194 C83.9808938,72.0480439 83.2525198,72.0767697 82.5290436,72.0543496 C82.887983,71.9954968 83.2357273,71.9394465 83.4302403,71.912122 L83.69892,71.8735875 C85.1976492,71.6591952 86.4920699,71.4742293 87.941821,71.2079906 L88.7184734,71.0650624 L87.9327251,70.980987 C87.8319702,70.9704776 87.7270172,70.9606688 87.6199651,70.95086 C87.0084388,70.8913066 86.3150491,70.8240463 85.8308658,70.590737 C85.6916281,70.5241773 85.6111642,70.4583183 85.5901736,70.3959624 C85.5677836,70.3251989 85.6216595,70.2236078 85.6846313,70.1059022 C85.7350087,70.0113174 85.7916834,69.9048219 85.8266677,69.782212 L85.8700483,69.6315769 L85.5146074,69.6434875 C84.9772479,69.6624045 84.4643774,69.6806208 83.9578042,69.5657178 C84.1887008,69.4879481 84.4342909,69.4094777 84.6141104,69.3569306 C84.715565,69.3275042 84.8401093,69.3106891 84.9604554,69.2945746 C85.1682624,69.2679508 85.3641747,69.2420275 85.4950161,69.148844 C85.5348983,69.1201182 85.6916281,69.1061056 85.7762903,69.0990993 C85.9456145,69.0836855 86.0680597,69.0731761 86.0841525,68.9540693 C86.1009449,68.8363637 85.9854966,68.7782116 85.7378075,68.6836268 C85.2445283,68.4958584 85.0255263,68.4867502 84.5455411,68.4678332 C84.3461304,68.4601263 84.0998406,68.4496169 83.7667897,68.4243943 C81.7670847,68.270256 79.2090296,68.0831883 77.1554487,67.9935079 C75.166239,67.90663 72.6802517,67.8022363 70.4839347,67.8120451 C69.2489875,67.8218539 68.018938,67.8099432 66.828071,67.7980326 C65.9051841,67.789625 64.9759999,67.7819181 64.0223268,67.7812175 C63.7130652,67.7812175 63.2603678,67.8737004 62.8223638,67.9626802 C62.4403348,68.04045 62.0450118,68.1210222 61.8001214,68.1259266 L61.6930693,68.1287291 C61.2361738,68.1357354 61.0276671,68.1427417 60.8296557,67.8589872 C60.64144,67.5864428 60.6624306,67.5170806 60.7617861,67.1821803 L60.8072658,67.0245389 C60.9367078,66.5635255 61.3243343,66.1095183 61.7245552,65.6870394 C62.1814507,65.2057078 62.7167111,64.6487083 63.2876556,64.1274408 C63.890086,63.5781482 64.6835308,62.8985387 65.3160477,62.3912838 L65.7967326,62.2882915 C69.591834,61.4727601 73.892809,60.5486314 77.5521712,60.0588922 C78.6429829,59.9131615 79.6708229,59.793354 80.6650779,59.6777504 C83.1328734,59.3897921 85.4635302,59.1179483 88.0474737,58.5245162 C88.1524268,58.5259174 88.2755716,58.5203124 88.4057134,58.5126055 C87.3351925,59.173298 86.7481553,60.014052 86.1807092,61.218432 C86.0540659,61.4881739 85.906432,61.5855613 86.0141838,61.9106528 C86.4130053,63.1108291 88.8577111,62.8796218 89.9121392,62.8095589 C90.229797,62.7878395 91.2695316,62.7591137 91.5431092,62.7927439 C92.1301464,62.8635073 92.6682056,62.7507062 92.7332765,63.3840742 C90.8854035,64.7201724 89.0060447,66.6286839 89.7980902,68.9940051 C90.4355049,70.9011154 91.5487067,71.5246746 93.5414148,71.7565826 C96.1743364,72.0620565 98.1285617,70.42679 99.3194287,68.0222336 C100.416538,66.5628248 101.543033,65.2610574 103.011676,64.2059112 C104.479619,63.1507649 106.185456,62.3877807 107.858407,61.8672139 C109.532757,61.346647 110.920236,60.9928297 112.638667,60.6635344 C114.357098,60.3335385 116.301528,60.12335 118.064739,59.8942445 C118.445368,59.8452005 118.748333,59.8080672 119.118467,59.7835452 C120.088933,62.5727466 118.905762,70.1787676 118.846989,73.1508329 C118.788215,76.1228982 119.554372,84.7329196 119.769876,87.7428189 C119.936401,87.9004602 119.768476,87.0667125 120.102927,87.4849876 C120.437377,87.9025621 120.266653,90.2202406 120.18549,91.1100386 C120.166598,91.3181252 120.27295,92.818871 120.294641,93.2042166 C120.491253,92.7544132 120.561921,92.0972239 120.660577,91.6137903 C120.727747,91.6964645 120.51924,93.7941456 120.985232,93.550327 C121.450523,93.3065083 121.578566,91.4666584 121.70451,90.7821445 C121.760485,90.4773712 121.871735,89.5770638 121.97179,89.1987245 C121.913016,90.1655916 121.83745,91.1737957 121.808063,92.1630829 C121.807364,92.1862037 121.808063,92.2324451 121.809463,92.2569671 C122.097734,91.1737957 122.416091,90.0541917 122.725353,89.0046505 C122.779229,89.1945207 122.164904,91.2347504 122.696666,91.2025215 C123.228428,91.1709932 123.293499,88.6024898 123.303994,87.9467017 C123.309591,87.5725662 123.46982,86.1488894 123.554482,85.6675578 C123.552383,86.1720102 123.506203,87.8696326 123.488011,88.2318574 C123.442532,89.0971334 123.31239,91.1275543 123.327083,91.388188 C123.35647,91.9108567 123.183648,93.2175285 123.444631,92.6570259 C124.27236,90.8725256 124.818816,88.8456078 125.382763,86.7121946 C125.946711,84.579482 126.68698,82.1209773 127.495818,79.9090937 C127.817674,79.0270026 127.883444,76.0164027 127.962509,74.8883911 C128.22769,75.1343117 128.503367,75.305265 128.881198,75.5084472 C129.380774,75.7781891 130.01469,75.9393336 130.630415,76.0542367 C131.246139,76.1691397 131.970315,76.2637245 132.617525,76.3190742 C133.265435,76.3744238 134.018298,76.4395822 134.638221,76.5019381 C135.257444,76.5642941 135.736729,76.6175418 136.332862,76.6897065 C143.422789,75.8720733 150.616969,75.1504261 157.74328,74.5282682 C157.883217,74.9822753 158.120411,75.4131617 158.442966,75.8587614 C159.296584,77.0372182 160.316728,76.8242272 161.478208,76.5243583 C161.508295,76.3800288 161.592257,75.9806707 161.625142,75.9092066 C161.789569,75.5518861 161.937902,74.7272466 162.419986,75.2744373 C162.901371,75.8223287 163.388353,75.4495944 163.7298,74.841449 C164.047458,74.5415801 164.353221,74.2480168 164.655486,73.9551542 C165.636447,73.8878939 166.594318,73.8689769 167.288407,73.6685972 C168.037772,73.4514025 168.188904,73.3848428 168.539448,72.9616633 C168.89069,72.5384838 168.95786,72.4137719 169.454638,72.1300174 C169.790488,71.9387459 170.272572,71.8042253 170.728068,71.7250543 C169.994097,71.8224416 168.912381,71.9387459 169.238435,71.6318707 C169.727516,71.1715579 172.28767,70.9305418 173.175573,70.7427734 C172.873308,70.688825 172.335249,70.5690176 172.028086,70.5164704 C171.719524,70.4639233 171.643958,70.3202945 171.820979,70.2803587 C172.626318,70.0974947 173.40577,70.0428457 174.071871,69.6021505 C173.766108,69.4942537 173.221052,69.3169948 173.088811,69.0192277 C172.956571,68.7221613 173.041932,68.6843274 173.154582,68.3851591 C173.267232,68.0852902 173.015344,67.6102642 172.776751,67.363643 C172.027386,67.3181022 171.278722,67.2753638 170.529357,67.2326255 C171.441749,66.0002203 172.196011,64.9808061 173.06922,63.7364902 C173.982311,62.4375253 175.309617,52.7856696 176.10726,51.5777864 C176.904204,50.3699032 178.201423,48.5727915 178.629631,47.8056035 C179.479051,46.2810363 179.679861,45.7793864 180.385845,44.5785095 C180.739187,43.978071 181.082734,43.3699257 181.410887,42.7624809 C181.73834,42.1550362 182.0504,41.5468908 182.340071,40.9464523 C182.63324,40.3369057 182.890025,39.7574861 183.490356,39.3090839 C184.202637,39.4211845 185.003079,39.5599089 185.752443,39.6615 C186.502508,39.7637917 187.337934,39.8345552 188.092896,39.8850004 C188.847158,39.9361463 189.667891,39.9669739 190.38507,39.9690758 C191.102949,39.9711777 191.801236,39.9809865 192.455443,40.0076104 C193.11035,40.0349349 193.60223,40.0601575 194.222153,40.1449335 C188.253824,50.5387546 176.001608,76.9405315 172.806838,88.3642762 C172.502474,89.4544538 172.392623,89.9378874 172.345744,90.5929749 C172.298865,91.2480623 172.380029,91.2697818 172.655006,91.4449389 C172.929982,91.6193953 173.138489,91.42392 173.399472,91.4176144 C173.660456,91.4113087 173.987909,91.2186359 174.215307,91.1492737 C174.444105,91.0806122 174.622525,90.962206 174.773657,91.2032221 C174.926189,91.4435376 174.79045,91.8954429 174.738673,92.1581785 C174.931787,91.7616229 175.257141,91.1282549 175.452354,90.7954564 C175.646866,90.4633586 175.752519,90.323233 175.962425,90.1263564 C176.172331,89.9301805 176.163935,89.9729188 176.400429,89.7732397 C176.636923,89.57286 176.781059,89.4306325 177.102915,89.1027384 C177.424771,88.775545 177.950935,88.1246613 178.311274,87.6902717 C180.44182,85.1196664 182.600354,82.5476599 184.907222,80.1325941 C184.5091,80.7666627 183.874484,81.52194 183.723352,82.2709117 C183.810812,82.2316765 184.114477,82.0284943 184.159257,82.0053736 C184.449627,81.8561397 185.013574,81.1323907 185.378811,81.3593943 C185.744747,81.5863978 185.373913,82.6527541 185.170304,83.0402016 C184.891129,83.5705772 183.945152,84.909478 183.957747,85.4657768 C183.971041,86.0220757 184.144563,86.0283814 184.71061,85.4545668 C185.950455,84.1962383 185.847601,84.890561 187.181204,82.2575998 C188.515507,79.6246386 199.739183,57.4791787 201.484202,54.2604922 C202.122317,53.0834366 202.430879,52.6483465 202.906666,51.7361284 C203.674922,50.2662102 203.753287,48.9686465 204.012871,47.3095587 C204.272454,45.6497702 204.692966,43.5135545 205.460523,41.9868854 C206.228079,40.4609169 207.374866,40.2409196 208.837211,40.3523195 C210.610917,40.4882414 212.332847,40.507859 213.990405,40.2395183 C215.647963,39.9711777 217.115906,39.5585076 218.64822,39.1101055 C219.157592,38.9608717 219.651571,38.8270516 220.142052,38.6988367 C221.797511,41.2133917 224.800567,45.5089439 226.225129,47.3361826 C226.318187,47.4552894 227.38381,48.662472 227.730155,49.0576263 C228.0772,49.4527807 228.872044,50.3320692 229.298853,50.8344197 C229.724263,51.3360696 230.165066,51.9224955 230.533101,52.4745906 C230.901836,53.0266857 231.318149,53.5983985 231.27267,54.2724029 C231.22649,54.9464073 231.262874,55.2511807 231.078157,55.9707259 C230.89204,56.6902712 230.753502,57.0630055 230.059413,57.7832514 C229.365323,58.5027967 228.788781,58.5721589 227.740651,59.6560309 C226.472818,60.9669065 224.729898,63.0540782 223.173795,64.7474969 C221.618391,66.4416161 180.961317,109.465438 179.433901,111.343122 C177.906484,113.220105 176.703023,114.989192 175.418398,117.067255 C174.134472,119.144618 173.02197,121.551276 172.145962,123.882968 C173.908474,123.669977 175.640199,123.360999 177.355131,122.880368 C180.863361,119.460602 184.52972,116.212489 188.563414,113.543795 C187.632131,114.516968 185.542167,117.290756 185.165035,118.085969 C184.787205,118.881883 187.237508,116.105293 187.90361,115.747972 C188.025355,115.682814 190.190886,113.494751 190.67367,112.767499 C191.156454,112.040247 192.709059,110.039253 193.48921,109.77932 C194.269361,109.519386 192.922463,110.952872 193.008525,110.882108 C194.402301,109.733078 234.223249,66.9726924 236.131295,66.6665178 C237.384434,66.4654375 196.842809,110.208805 196.610513,110.386764 C196.378916,110.565424 193.380758,113.803028 194.820014,112.773104 C198.451389,110.176576 240.235658,65.3339228 243.594855,61.6626304 C244.114722,61.0930196 245.542783,59.5971781 246.407596,58.7662329 C247.272409,57.9352877 248.391208,56.8514157 249.39246,55.8908543 C250.393712,54.9295923 251.620263,53.7616449 252.706177,52.7884721 C253.790691,51.8152994 254.417611,51.2660068 255.676347,50.2227712 C256.935784,49.178835 258.28338,48.1292938 259.824791,46.7995013 C260.756773,45.9958806 262.000117,44.9064036 263.188885,43.8505567 C262.545873,44.3578116 261.982625,44.6765975 261.869276,44.3213789 C261.595698,43.467313 263.514239,42.353314 264.661726,41.2246017 C268.634548,37.310892 288.631378,16.7168946 292.444671,12.1347854 C294.34782,10.2872285 297.368368,6.98026285 297.733604,4.61213914 C298.098141,2.24401543 298.448684,0.903012826 296.160708,0.141429845 C293.872032,-0.620153135 290.41418,1.87548493 288.555812,3.29846104 Z" id="Fill-28"></path>
                </g>
            </g>
        </g>
    </g>
</svg>