<?xml version="1.0" encoding="UTF-8"?>
<svg width="45px" height="39px" viewBox="0 0 45 39" version="1.1" xmlns="http://www.w3.org/2000/svg" xmlns:xlink="http://www.w3.org/1999/xlink">
    <title>50C621AE-30DB-4684-BEFC-D5DFC666B288</title>
    <defs>
        <polygon id="path-1" points="0 0 21.6559165 0 21.6559165 26.9737549 0 26.9737549"></polygon>
        <polygon id="path-3" points="0 0 45 0 45 37.3941025 0 37.3941025"></polygon>
    </defs>
    <g id="Page-1" stroke="none" stroke-width="1" fill="none" fill-rule="evenodd">
        <g id="MacBook-Pro-13&quot;-Copy" transform="translate(-37.000000, -707.000000)">
            <g id="Group-9" transform="translate(37.000000, 707.000000)">
                <g id="Group-3" transform="translate(20.688629, 12.026245)">
                    <mask id="mask-2" fill="white">
                        <use xlink:href="#path-1"></use>
                    </mask>
                    <g id="Clip-2"></g>
                    <path d="M9.04781314,5.94522371 C8.82130869,6.02037348 8.54834559,6.18038937 8.36414374,6.08929873 C7.93146977,5.87508392 7.53946567,5.53273495 7.13113425,5.24200401 C7.48914784,4.55001881 7.81673324,3.29114624 8.20977635,3.25850542 C10.7129029,3.05051514 13.2304271,3.11321586 15.7432016,3.08649594 C15.7650208,3.26063087 15.7869885,3.4347658 15.8088077,3.60890073 C15.4739493,3.74796577 15.1436921,3.90782984 14.8034901,4.02275585 C12.8865144,4.67041027 10.9674606,5.30941108 9.04781314,5.94522371 M10.8384748,9.51202935 C8.46997445,10.9283369 11.2344865,9.70104242 11.9378971,9.37584885 C13.483649,8.66139463 15.2238444,7.77174276 16.8090787,7.09311753 C17.1261256,6.95739248 17.4369384,6.8298656 17.7382516,6.71281413 C19.4066068,5.26295485 21.7987076,5.26295485 21.6492384,2.66337994 C21.4997692,1.74579361 20.7521264,1.28715226 20.0215531,0.970612305 C19.6442435,0.799817364 19.2014763,0.643748742 18.7426786,0.514855493 C18.2837325,0.386114062 17.8086075,0.284699822 17.3661372,0.222454554 C16.4813449,0.0979640196 15.6514718,0.00945428577 14.7171038,0.000800675431 C13.7825874,-0.00785293491 12.6714391,0.0554550565 11.7168846,0.102974005 C10.7624786,0.150492953 9.85067197,0.198922807 8.90724976,0.220329106 C8.12680388,0.45169932 7.38257497,0.554935373 6.55745161,0.603668863 C5.73217982,0.652705988 4.78059395,0.720416693 4.01128034,0.953153266 C3.24196673,1.18619347 2.72602343,1.4596172 2.12651394,1.94877391 C1.52700445,2.43808244 1.24795572,3.09226502 1.01299074,3.8287328 C1.18457603,4.11126559 1.37842584,4.275836 1.69309782,4.35857666 C2.00791823,4.44116551 2.35019822,4.42264374 2.66412804,4.40063017 C2.9782063,4.3786166 3.33147012,4.33079402 3.6166045,4.38514476 C3.9018873,4.43949551 4.07970665,4.38104569 4.23526148,4.66615937 C4.39066787,4.95096943 4.24624531,5.21103319 4.13863343,5.5691712 C4.09840885,5.70368171 3.96912617,6.02280257 3.87739632,6.24217918 C3.43477753,7.30171509 2.8542671,8.44991254 2.37513449,9.49229304 C1.8961503,10.5346735 1.52017666,11.5131388 1.13678151,12.5842128 C0.753534793,13.6551351 0.354406045,14.9782265 0.101332591,16.0218216 C-0.03329358,16.5768672 -0.0500661902,16.8313137 0.151205131,17.225888 C0.352328022,17.6206141 0.708560449,17.4941499 1.02130283,17.5456161 C1.33389679,17.5969305 1.57954873,17.5263352 1.87507322,17.6244095 C1.92880494,17.3684448 2.0623921,16.9970987 2.18529229,16.806871 C2.30834091,16.6166434 2.33609735,16.6351652 2.50337816,16.635317 C2.6708074,16.6354688 2.71696919,16.6866314 2.88098453,16.5714018 C3.04485145,16.4560203 3.20411703,16.1988411 3.28530834,15.9976826 C3.75494142,16.1569394 4.02449063,16.1932238 4.42792385,15.8150458 C4.8315055,15.4370197 5.22247059,14.8547987 5.52497129,14.3788502 C5.82762043,13.9029016 6.10845032,13.5338327 6.51500058,13.1655229 C7.83632603,14.3999528 7.92939175,15.5405594 8.90146098,17.1968908 C9.87353022,18.8532222 13.1171749,24.7323636 14.2269873,26.4750792 C14.3283651,26.6341842 14.4368676,26.8213755 14.5266679,26.9738005 C14.521176,26.9438924 14.4843653,26.8187946 14.4782796,26.7986028 C14.3979789,26.5321627 14.1481709,26.0524187 14.2292138,25.8246921 C14.3105535,25.5971173 14.5245898,26.0553032 14.6151323,26.1087431 C14.7055262,26.1620311 14.8383712,26.5039246 14.9915512,26.4621747 C15.1448796,26.4202731 14.9336634,25.813154 14.8765178,25.6994425 C15.1448796,25.9396181 15.3983983,26.2066655 15.7060941,26.4012958 C15.6602291,26.3281197 15.6050131,26.253729 15.5588513,26.1805529 C15.512838,26.1073767 15.4148741,26.0024707 15.3780634,25.9412881 C15.2220633,25.6819835 15.4537628,25.8280321 15.570132,25.8840528 C15.5106115,25.6825907 15.3234411,25.3303736 15.4217018,25.1407533 C15.5199626,24.9512847 15.7334052,25.417517 15.8031674,25.4272333 C15.8729296,25.4369496 15.9939002,25.8725147 16.0756852,25.6415999 C16.1571734,25.4106852 16.008001,25.2398902 15.895491,24.8020479 C15.7011959,24.0479693 15.3972109,22.8859564 15.0440955,22.0385099 C14.6908316,21.1912151 12.6030128,16.7339985 12.1511913,15.8598321 C11.6992214,14.9856656 11.2117767,14.1084628 10.6703034,13.1530739 C10.1288301,12.1975331 9.37985145,10.9917967 8.81388718,9.99784607 C8.99690159,9.77740673 11.2334475,9.2761046 10.8384748,9.51202935" id="Fill-1" fill="#FFFBFF" mask="url(#mask-2)"></path>
                </g>
                <path d="M20.1538941,17.5632006 C21.2263021,15.9590945 22.6490054,14.676842 23.73403,13.1480375 C24.0936763,12.6649535 24.4383312,12.1950776 24.7461754,11.7742389 C24.9308225,10.9468323 25.9143209,10.7178911 26.032026,9.85480737 C25.8760259,10.0351668 25.8760259,10.0351668 25.7200258,10.2155263 C27.0662875,7.56782515 28.9376952,5.40305621 30.7789715,3.29673709 C30.798119,3.18985741 30.6351427,3.30235434 30.5285698,3.34213059 C27.7504022,4.95883754 25.898142,7.46504455 23.6892041,9.49484754 C23.3872971,9.79559845 23.052587,10.129142 22.6962062,10.4843955 C22.2521031,10.9273996 21.7731189,11.40517 21.3014078,11.8756531 C20.8298451,12.3459844 20.3649618,12.8100912 19.9481699,13.2274381 C18.3360697,14.7585199 16.7575148,16.2211319 15.4568211,18.0165283 C15.3707316,18.1179425 15.2258638,18.2721893 15.1231501,18.3728445 C15.0204364,18.4734996 14.9439948,18.5664121 14.8596865,18.6846781 C14.775675,18.8030959 14.7419814,18.8454531 14.6229404,18.977079 C14.0085879,19.6564633 13.2977557,20.4468264 12.7706802,21.1840533 C12.5621358,21.475847 12.3593802,21.8424868 12.2173325,22.0544243 C12.0754332,22.26621 12.031201,22.4496059 11.9786568,22.5548155 C11.9261125,22.6600252 11.8078136,22.9079436 11.7986109,22.8661937 C11.7552693,22.6670088 11.8280001,22.3553271 11.8380934,22.1307886 C11.8478898,21.906402 11.8673341,21.5702776 11.8950906,21.3811127 C11.9696025,20.8720679 12.0076006,20.4598828 12.0271934,19.9714851 C12.0369898,19.7276659 12.0540593,19.5782772 12.0993305,19.3165435 C12.1443048,19.0551133 12.1422268,19.0249016 12.1805218,18.6544664 C12.2188168,18.2840311 12.2566665,18.0593409 12.3498806,17.4461491 C12.4430948,16.8329573 12.60429,15.5273249 12.6841454,14.744249 C12.7640008,13.9610214 12.7916088,12.6573626 12.8489029,11.9225648 C13.0078716,9.88744818 12.9618582,6.6928996 12.9532493,4.88976048 C12.9473121,3.68675682 12.9300942,2.95727265 12.8162482,2.13548331 C12.7024023,1.31339032 12.6412491,1.42861998 12.2415266,0.931113291 C12.0914637,0.744225671 11.9758366,0.746047484 11.7334501,0.778384659 C11.2718322,0.840174474 11.1219178,0.572975277 10.7783019,1.16536804 C10.4348345,1.75776081 10.3089657,2.15066508 10.1960103,3.20215464 C10.1566763,3.57000899 9.94100727,5.36388723 9.87540113,6.1618412 C9.80979499,6.9600988 9.69312887,9.28017728 9.61921064,10.0149751 C9.54529241,10.7497729 9.4989822,11.0585701 9.44554733,11.5758131 C9.39211247,12.0932079 9.39137032,11.8685177 9.37059009,12.4518014 C9.3499583,13.0349333 9.28212571,14.1486681 9.18312278,14.8526469 C8.95513403,16.4745156 8.73887126,18.1305434 8.52750668,19.730854 C8.47525926,20.1263392 8.46976734,20.1278574 8.398224,20.5719242 C8.28378433,21.2807612 8.2462315,21.5034778 8.1031448,22.5031975 C7.99672037,23.247408 7.78060603,24.746608 7.59892749,25.8453129 C7.53821955,26.2121045 7.47365242,26.6409896 7.40938215,27.1002382 C7.34511189,27.5594869 7.28113848,28.0489472 7.22191484,28.537193 C6.98279382,31.4026008 5.93636107,34.7668815 7.73043663,37.213576 C10.1225374,34.7668815 11.1691186,31.4026008 13.1126633,28.6501454 L13.1126633,28.8030258 C14.1592445,27.4267982 14.7572697,25.7446578 15.7735711,24.4022854 C16.0069034,24.0086221 16.2449854,23.6187542 16.4872234,23.2319226 C17.6978199,21.2979166 19.0090521,19.441034 20.3239951,17.5868841 C20.2718961,17.5774714 20.212524,17.5597087 20.1538941,17.5632006" id="Fill-4" fill="#FFFBFF"></path>
                <g id="Group-8">
                    <mask id="mask-4" fill="white">
                        <use xlink:href="#path-3"></use>
                    </mask>
                    <g id="Clip-7"></g>
                    <path d="M37.3416634,7.78736877 C38.123742,8.67944972 38.8826655,9.68858214 39.5923102,10.7904752 C41.0101153,12.9907695 42.2207118,15.5938362 42.8454544,18.3860678 C43.1576031,19.7796027 43.32147,21.2165575 43.2900028,22.6419741 C43.2580903,24.0667834 43.0065012,25.4745892 42.5407273,26.7888753 C42.3182304,27.4503451 42.0074176,28.0740123 41.6776058,28.6788541 C41.5938911,28.8294573 41.4929586,28.9709514 41.4027131,29.1173037 C41.3074209,29.2609233 41.2245969,29.4112228 41.121141,29.5492251 C41.0170915,29.6866202 40.9131904,29.8237116 40.8097345,29.9603475 L40.6558124,30.1659087 C40.6060883,30.2352894 40.5428571,30.2955611 40.4873442,30.3608427 C39.5975053,31.4051968 38.5264331,32.2819442 37.3735759,32.9866821 C37.0833949,33.1609688 36.8030103,33.3416319 36.496502,33.4858588 C36.3471812,33.5626785 36.1986026,33.6387392 36.0509146,33.7144963 L35.8303473,33.8283596 L35.600429,33.9270411 C35.2940691,34.0568452 34.995576,34.1915076 34.6950049,34.3150872 C34.3864186,34.4259141 34.0821367,34.5352229 33.7821593,34.6428616 C32.5651803,35.0406241 31.381598,35.3469923 30.2625829,35.537068 C29.9839795,35.5876234 29.7113133,35.6371159 29.4453264,35.685394 C29.175035,35.7204639 28.9115715,35.7547747 28.6549357,35.7880227 C28.3982999,35.8217263 28.1486403,35.8546707 27.9062539,35.8865525 C27.6671328,35.9070478 27.434988,35.9270878 27.2104132,35.9465205 C26.9861352,35.9659531 26.7691303,35.9844749 26.5598437,36.0025412 C26.4552004,36.0116503 26.3526352,36.0206075 26.2519995,36.0295648 C26.1433486,36.0342711 26.0367758,36.0388256 25.9324294,36.043532 C25.5138562,36.060991 25.1303127,36.0770837 24.7844704,36.0916582 C24.6979356,36.09515 24.6139241,36.0986418 24.5321391,36.1021336 C24.5036405,36.1033482 24.4754387,36.1044109 24.4475339,36.1056254 L24.4211133,36.1048663 C24.2805499,36.1006154 24.1488923,36.0965164 24.0265859,36.0927209 C23.7818245,36.0878628 23.5737254,36.0684301 23.4054056,36.0608392 C23.2369373,36.052641 23.1083968,36.0404956 23.0217136,36.0327529 C22.9350303,36.0253139 22.8903529,36.0213666 22.8903529,36.0213666 C22.8903529,36.0213666 22.8456754,36.0175711 22.7591406,36.0101321 C22.6724574,36.0031485 22.54362,35.991914 22.375597,35.9711149 C22.0395511,35.9337678 21.5448333,35.8765325 20.9162315,35.7693492 C19.6606606,35.5624216 17.8573824,35.1678473 15.7752038,34.4055705 C13.6955486,33.6511883 11.3346182,32.5254598 9.07758892,30.9479218 C7.94758998,30.163176 6.85796404,29.2557615 5.85680249,28.2457182 C4.86439832,27.230513 3.96906749,26.1046328 3.26343042,24.8855364 C2.55779336,23.6678065 2.0538729,22.3553422 1.81831421,21.0112999 C1.58038063,19.667713 1.62045678,18.2949772 1.92102789,16.9682421 C2.06738005,16.3041913 2.29136119,15.6535006 2.5589808,15.0207243 C2.82986587,14.3885553 3.14290512,13.771568 3.51264469,13.1834262 C3.59858576,13.0341894 3.6956591,12.8893552 3.79258401,12.7452802 C3.89099321,12.6019643 3.9794576,12.4551565 4.08410088,12.3151806 C4.1865177,12.1747492 4.28848923,12.0347733 4.3901639,11.8954046 C4.49079956,11.7523923 4.59648185,11.6320008 4.69815652,11.4997676 L4.85103961,11.3057445 L4.92911388,11.2076703 L5.02114059,11.1007906 C5.14359549,10.9582338 5.26545666,10.8165878 5.38672412,10.6753974 L5.45856432,10.5920494 L5.46242351,10.588254 L5.48335216,10.567455 L5.52506104,10.5255533 L5.6915997,10.3590092 C5.80203176,10.247575 5.91172166,10.1368999 6.02096627,10.0269838 C6.94969389,9.17209824 8.02536739,8.46098401 9.10148618,7.87344942 C9.37637887,7.73241075 9.63939715,7.58499574 9.9096885,7.45412886 C10.1826516,7.32614652 10.4505681,7.20028962 10.7132895,7.07716545 C11.2528332,6.84989431 11.767589,6.62565953 12.2793763,6.44438917 C14.3076747,5.68332691 16.0517293,5.28283175 17.206516,5.03096614 C19.3507384,4.58841748 21.2957675,4.31818192 23.1070609,4.13994791 C24.9193934,3.96702753 26.5991777,3.89187775 28.2350267,3.89525349 C29.870282,3.90280863 31.4639768,3.98964837 33.0931464,4.2340749 L33.4009906,4.27779841 L33.7045303,4.33624823 C33.7121003,4.33761459 33.7196702,4.33898095 33.7270917,4.34049913 C33.7895808,4.38801808 33.8514762,4.43568884 33.9151528,4.4841187 C34.0937143,4.62758645 34.2718305,4.78168144 34.4581103,4.93608007 C34.6442418,5.09108596 34.8363104,5.2489764 35.0205123,5.42387042 C35.208128,5.59527263 35.4003451,5.77077392 35.5968667,5.95037429 C35.7852246,6.13741373 35.9775901,6.32885588 36.1739632,6.52394166 C36.3741955,6.71568744 36.5627018,6.92504409 36.7569969,7.13607072 C36.9506983,7.34770463 37.1546414,7.55782036 37.3416634,7.78736877 M27.0420934,3.68874564 C25.21566,3.50094711 23.206806,3.44356001 20.937457,3.59234138 C19.7089004,3.6858611 17.8561949,3.84785061 15.5622065,4.33776641 C14.9885239,4.4516297 14.3890144,4.60754651 13.7650139,4.76695512 C13.4539043,4.85728667 13.136709,4.94959184 12.8135765,5.04371883 C12.4908893,5.14164127 12.1646398,5.25808546 11.8320077,5.36800149 C10.5072684,5.83544827 9.10326734,6.44059372 7.72731959,7.29563115 C7.5576639,7.40615446 7.38934408,7.52259865 7.21939152,7.63737285 C7.13478632,7.69521541 7.04988426,7.75320978 6.96468534,7.81135597 L6.90100879,7.85507947 L6.86894787,7.87694122 L6.85306585,7.8878721 L6.79695924,7.93038106 L6.69187067,8.01190718 C6.55160415,8.12091231 6.41044705,8.23022107 6.26884467,8.34028892 L6.16242023,8.42287776 L6.04723841,8.51761202 L5.81390617,8.71148326 C5.66117152,8.84128741 5.49507815,8.97169884 5.35243675,9.10317299 C5.20608459,9.23464714 5.05928714,9.36672856 4.91189598,9.49926544 C4.7634658,9.6308914 4.6252773,9.77360007 4.48100317,9.91129874 C4.33747119,10.0499083 4.19393921,10.189277 4.05812559,10.3363884 C3.49720795,10.9098039 2.97740547,11.5325602 2.49931187,12.1868946 C2.02374158,12.8425954 1.58943487,13.5336697 1.23587419,14.2582957 C0.520143873,15.7042077 0.0963757145,17.2661084 0.0165202788,18.8026556 C-0.0679364925,20.3404174 0.175340569,21.8440201 0.65120772,23.2293569 C1.1272233,24.6166673 1.82247025,25.892088 2.63200844,27.0474209 C3.45030402,28.198351 4.37532088,29.2370879 5.35985826,30.1528524 C7.3255191,31.990606 9.47419436,33.3733618 11.433918,34.3712597 C13.3928995,35.3749267 15.167976,35.9922176 16.4364603,36.3590092 C17.069515,36.5454414 17.5789274,36.6668956 17.9261056,36.7479662 C18.0988783,36.7898679 18.2330592,36.818106 18.3238984,36.836476 C18.4142924,36.8553014 18.4608995,36.8650177 18.4608995,36.8650177 C18.4608995,36.8650177 18.5073581,36.874734 18.5977521,36.8937112 C18.6881461,36.9126885 18.8220301,36.9416856 19.0005916,36.9726565 C19.1793015,37.0031718 19.3960096,37.0493244 19.6590279,37.0874307 C19.7902402,37.1076224 19.9311004,37.1293324 20.081757,37.1524086 L20.1386058,37.1612141 L20.1528551,37.1633395 L20.2767943,37.1771549 L20.3041054,37.1794322 C20.3406193,37.1824686 20.3777268,37.1855049 20.4152796,37.1886931 C20.4906822,37.1949176 20.5681627,37.2011421 20.6478697,37.2078221 C20.9666977,37.2342384 21.3204069,37.2633874 21.7061769,37.2954209 C21.8029534,37.3033155 21.9018079,37.31121 22.002592,37.3194081 C22.1113913,37.3242663 22.2224171,37.3291245 22.3355208,37.3342863 C22.56158,37.3440026 22.7962481,37.3540226 23.038783,37.364498 C23.2814664,37.3740625 23.5321649,37.3839307 23.7905819,37.3941025 C24.0464755,37.3941025 24.3099391,37.3941025 24.5808242,37.3941025 C24.8515608,37.3933434 25.1298674,37.3928879 25.4150018,37.3924325 C25.7032532,37.3792243 25.9983323,37.3655607 26.3002393,37.3515935 C27.5056408,37.3052891 28.8389891,37.1560523 30.2584269,36.9061603 C30.6133234,36.8343505 30.9735635,36.7613262 31.339147,36.6872391 C31.7036915,36.5991849 32.0725405,36.4986815 32.4461393,36.40167 C32.5395019,36.3769237 32.6331613,36.3523292 32.7271176,36.3274311 C32.8201833,36.2973712 32.9135459,36.2671595 33.0072054,36.2369478 C33.1943758,36.175917 33.3827337,36.1145827 33.572279,36.0529447 C33.9532993,35.9383223 34.3280855,35.7833164 34.7083636,35.632865 C36.2244295,35.0242278 37.742128,34.1915076 39.094327,33.1321235 C39.1786353,33.0659309 39.2688808,33.0047484 39.3484394,32.9340013 L39.5906775,32.7240374 C39.7515758,32.5834542 39.9132162,32.4424155 40.0750051,32.3009214 C40.2354582,32.1585164 40.378248,32.0029032 40.5308342,31.8535146 C40.6789675,31.7012414 40.8354129,31.5532191 40.9764216,31.395936 C41.5358549,30.7643742 42.0666413,30.1059407 42.5025807,29.4104637 C43.3942008,28.0264934 44.0327474,26.5491551 44.4260874,25.0710577 C44.8188336,23.5918976 44.9917548,22.1127375 45,20.67973 C45.0138709,17.8097677 44.3782929,15.1313994 43.4442217,12.8146609 C42.9762214,11.655229 42.4356387,10.5812704 41.8432538,9.61403964 C41.7044716,9.3679431 41.5450576,9.13642107 41.3957369,8.90580995 C41.2455255,8.67580609 41.1002124,8.44868678 40.9396109,8.23507924 C40.7828687,8.01964988 40.6292434,7.80847143 40.4790321,7.60199932 C40.3182822,7.40084084 40.1610946,7.2043887 40.0074694,7.0124911 C39.8577034,6.81846804 39.6960629,6.63810858 39.5396175,6.46169639 C39.3827268,6.28558783 39.2335545,6.11221198 39.081562,5.94809702 C38.9245228,5.78701842 38.772085,5.63079798 38.624397,5.47958752 C38.4774511,5.32807343 38.3349582,5.18156933 38.185489,5.04827337 C37.6107673,4.49960411 37.0770124,4.06221724 36.6444869,3.71774282 C35.0178405,2.46858658 33.3227679,1.54811571 31.5827209,0.955267491 C29.8492049,0.355283841 28.0996584,0.0518002079 26.3756419,0.00595125483 C24.6507348,-0.0389867919 22.9526935,0.170825305 21.2975486,0.60897126 C19.6415131,1.0469654 18.0264444,1.70676523 16.4367571,2.58837076 C18.2232628,2.12244216 19.8754391,1.88499924 21.426386,1.81926217 C22.9783719,1.75382873 24.4310581,1.86313749 25.8411448,2.12593397 C27.2509346,2.3908559 28.621242,2.81108737 30.0019395,3.4203319 C30.8790135,3.80215348 31.7517829,4.27521751 32.6281147,4.84514125 C32.4354523,4.78259235 32.2414541,4.72216889 32.0456747,4.66387088 C30.5125394,4.21160588 28.867933,3.88155415 27.0420934,3.68874564" id="Fill-6" fill="#FFFBFF" mask="url(#mask-4)"></path>
                </g>
            </g>
        </g>
    </g>
</svg>